<svg width="1440" height="643" viewBox="0 0 1440 643" fill="none" xmlns="http://www.w3.org/2000/svg">
<g clip-path="url(#clip0_2306_2343)">
<path d="M-299.65 255.839L-306.514 235.577C-306.309 235.505 -284.188 227.855 -261.086 209.868C-230.845 186.32 -213.152 156.943 -208.5 122.552C-203.678 86.8969 -187.892 55.2356 -162.851 30.9912C-139.635 8.51426 -109.365 -6.30252 -77.616 -10.7299C-46.5863 -15.0563 -16.0689 -9.50343 10.6295 5.33012C39.7501 21.5088 63.2105 48.4788 78.4741 83.3255C103.11 139.57 144.207 174.931 200.62 188.422C243.377 198.648 279.468 191.909 279.829 191.841L283.943 212.833C282.316 213.15 243.603 220.496 196.477 209.426C168.625 202.883 143.595 191.242 122.081 174.826C95.2404 154.346 73.9578 126.442 58.8227 91.8886C32.9619 32.8492 -16.9249 2.40203 -74.647 10.4539C-123.884 17.3194 -177.796 55.5281 -187.248 125.412C-192.631 165.215 -213.812 200.412 -248.498 227.199C-274.399 247.202 -298.632 255.496 -299.65 255.839Z" fill="#222222"/>
<path d="M272.72 198.044C272.72 198.044 123.184 223.131 64.5183 78.629C5.85355 -65.8733 -166.29 23.8102 -200.569 107.521C-234.848 191.23 -308.107 225.32 -308.107 225.32" stroke="#887BB1" stroke-width="2.38484" stroke-linecap="round" stroke-linejoin="round"/>
<path d="M1126.14 522.865C1105.8 522.865 1092.08 521.914 1090.25 521.78L1092.16 495.811C1093.54 495.913 1222.05 504.728 1290.61 465.781C1282.19 459.617 1274.37 452.668 1267.26 445.029C1243.32 419.194 1233.18 391.287 1240.13 370.377C1246.22 352.092 1259.29 341.586 1276.02 341.552H1276.1C1301.89 341.552 1331.72 367.802 1342.61 400.115C1350.19 422.583 1347.51 443.952 1335.45 461.328C1354.42 469.056 1375.91 472.366 1397.79 466.982C1447.4 454.785 1486.42 400.823 1510.66 310.931L1535.87 317.691C1521.74 370.094 1502.55 411.693 1478.81 441.333C1457.28 468.222 1432.13 485.358 1404.04 492.265C1379.32 498.344 1352.57 496.139 1326.7 485.883C1322.91 484.382 1319.15 482.714 1315.43 480.877C1263.73 517.268 1175.48 522.865 1126.14 522.865ZM1276.1 367.591H1276.07C1273.83 367.595 1268.56 367.606 1264.91 378.576C1261.8 387.937 1267.25 406.65 1286.44 427.354C1294.1 435.556 1302.72 442.816 1312.12 448.98C1323.2 435.181 1321.7 419.793 1317.87 408.415C1310.11 385.409 1289.06 367.591 1276.1 367.591V367.591Z" fill="#222222"/>
<path d="M1327.85 454.849C1364.08 403.201 1277.87 323.237 1259.34 378.966C1239.12 439.744 1440.9 603.997 1517 321.706" stroke="#887BB1" stroke-width="1.98736" stroke-linecap="round" stroke-linejoin="round"/>
<path d="M1118.05 624.308C1118.05 626.788 1117.56 629.243 1116.61 631.534C1115.66 633.825 1114.26 635.906 1112.51 637.66C1110.75 639.413 1108.66 640.804 1106.36 641.753C1104.07 642.701 1101.61 643.19 1099.12 643.19H328.757C323.737 643.19 318.921 641.2 315.371 637.659C311.821 634.118 309.826 629.316 309.826 624.308V624.308C309.826 621.828 310.316 619.373 311.267 617.082C312.218 614.791 313.613 612.709 315.371 610.956C317.129 609.203 319.216 607.812 321.513 606.863C323.81 605.914 326.271 605.425 328.757 605.425H1099.12C1101.61 605.425 1104.07 605.914 1106.36 606.863C1108.66 607.812 1110.75 609.202 1112.51 610.956C1114.26 612.709 1115.66 614.791 1116.61 617.082C1117.56 619.373 1118.05 621.828 1118.05 624.308Z" fill="#FA8E44"/>
<path d="M660.58 133.489L696.585 124.594C696.585 124.594 704.84 130.511 697.762 139.299C697.351 139.808 660.58 133.489 660.58 133.489Z" fill="#887BB1"/>
<path d="M660.58 133.489L696.585 124.594C696.585 124.594 704.84 130.511 697.762 139.299C697.351 139.808 660.58 133.489 660.58 133.489Z" stroke="#887BB1" stroke-width="1.19242" stroke-miterlimit="10"/>
<path d="M656.1 113.496L679.893 85.1133C679.893 85.1133 690.06 85.0266 689.548 96.2868C689.517 96.9395 656.1 113.496 656.1 113.496Z" fill="#887BB1"/>
<path d="M656.1 113.496L679.893 85.1133C679.893 85.1133 690.06 85.0266 689.548 96.2868C689.517 96.9395 656.1 113.496 656.1 113.496Z" stroke="#887BB1" stroke-width="1.19242" stroke-miterlimit="10"/>
<path d="M641.513 115.251L630.643 79.8781C630.643 79.8781 636.114 71.3335 645.298 77.9029C645.83 78.285 641.513 115.251 641.513 115.251Z" fill="#887BB1"/>
<path d="M641.513 115.251L630.643 79.8781C630.643 79.8781 636.114 71.3335 645.298 77.9029C645.83 78.285 641.513 115.251 641.513 115.251Z" stroke="#887BB1" stroke-width="1.19242" stroke-miterlimit="10"/>
<path d="M709.542 589L677.007 591.541C677.007 591.541 670.698 585.219 678.112 578.612C678.541 578.229 709.542 589 709.542 589Z" fill="#887BB1"/>
<path d="M709.542 589L677.007 591.541C677.007 591.541 670.698 585.219 678.112 578.612C678.541 578.229 709.542 589 709.542 589Z" stroke="#887BB1" stroke-width="1.19242" stroke-miterlimit="10"/>
<path d="M710.539 606.998L685.786 628.21C685.786 628.21 676.951 626.823 679.021 617.122C679.143 616.561 710.539 606.998 710.539 606.998Z" fill="#887BB1"/>
<path d="M710.539 606.998L685.786 628.21C685.786 628.21 676.951 626.823 679.021 617.122C679.143 616.561 710.539 606.998 710.539 606.998Z" stroke="#887BB1" stroke-width="1.19242" stroke-miterlimit="10"/>
<path d="M723.452 607.572L727.773 639.835C727.773 639.835 721.789 646.464 714.767 639.441C714.361 639.033 723.452 607.572 723.452 607.572Z" fill="#887BB1"/>
<path d="M723.452 607.572L727.773 639.835C727.773 639.835 721.789 646.464 714.767 639.441C714.361 639.033 723.452 607.572 723.452 607.572Z" stroke="#887BB1" stroke-width="1.19242" stroke-miterlimit="10"/>
<path d="M563.338 439.12H558.449L556.415 451.535H550.374L552.408 439.12H545.668V433.579H553.319L554.654 425.585H547.945V420.043H555.565L557.66 407.446H563.671L561.607 420.043H566.495L568.59 407.446H574.632L572.536 420.043H579.55V425.585H571.626L570.29 433.579H577.243V439.12H569.379L567.345 451.535H561.303L563.338 439.12ZM559.36 433.579H564.248L565.583 425.585H560.696L559.36 433.579Z" fill="#FA8E44"/>
<path d="M461.762 615.106C459.204 615.077 456.759 614.05 454.951 612.246C453.142 610.442 452.113 608.004 452.083 605.452V568.983H339.164C336.607 568.954 334.162 567.927 332.354 566.123C330.545 564.32 329.516 561.881 329.486 559.331V521.431C329.486 515.235 331.04 510.11 334.147 506.057L441.328 371.264C443.479 368.644 445.451 366.915 447.243 366.079C449.035 365.247 451.485 364.83 454.592 364.828H508.721C511.279 364.858 513.723 365.884 515.532 367.688C517.34 369.492 518.369 371.931 518.399 374.482V511.777H549.228C551.785 511.807 554.23 512.834 556.038 514.638C557.847 516.442 558.876 518.88 558.907 521.431V559.331C558.877 561.882 557.847 564.32 556.039 566.123C554.23 567.927 551.785 568.953 549.228 568.983H518.399V605.452C518.369 608.003 517.34 610.442 515.532 612.246C513.723 614.05 511.279 615.076 508.721 615.106H461.762ZM453.875 511.777V445.99L401.538 511.777H453.875Z" fill="#FA8E44"/>
<path d="M735.187 252.321C753.11 252.321 768.524 254.943 781.429 260.187C794.334 265.433 805.028 272.465 813.512 281.281C821.999 290.11 828.479 300.659 832.512 312.209C836.716 324.132 839.191 336.593 839.859 349.214C840.336 359.466 840.575 370.193 840.577 381.394C840.577 392.6 840.338 403.088 839.859 412.857C839.191 425.478 836.716 437.94 832.512 449.862C828.48 461.413 822 471.962 813.512 480.79C805.026 489.611 794.332 496.643 781.429 501.885C768.524 507.125 753.11 509.747 735.187 509.75C717.263 509.75 701.849 507.128 688.944 501.885C676.04 496.644 665.346 489.613 656.861 480.79C648.37 471.965 641.889 461.415 637.862 449.862C633.655 437.94 631.18 425.479 630.514 412.857C630.032 403.086 629.793 392.598 629.797 381.394C629.797 370.192 630.036 359.466 630.514 349.214C631.18 336.593 633.655 324.131 637.862 312.209C641.891 300.657 648.371 290.107 656.861 281.281C665.341 272.466 676.035 265.435 688.944 260.187C701.849 254.947 717.264 252.325 735.187 252.321ZM773.543 411.069C774.496 390.813 774.496 370.79 773.543 351.003C773.129 345.453 772.229 339.949 770.854 334.556C769.672 329.826 767.538 325.386 764.581 321.505C761.544 317.682 757.602 314.672 753.11 312.746C748.327 310.6 742.353 309.527 735.187 309.528C728.018 309.528 722.043 310.6 717.263 312.746C712.77 314.671 708.828 317.681 705.793 321.505C702.824 325.403 700.633 329.834 699.339 334.556C697.849 339.919 697.007 345.44 696.83 351.003C695.632 371.007 695.632 391.065 696.83 411.069C697.008 416.619 697.789 422.134 699.16 427.516C700.349 432.277 702.55 436.727 705.612 440.566C708.741 444.371 712.735 447.375 717.263 449.327C722.041 451.471 728.016 452.544 735.187 452.543C742.356 452.543 748.331 451.471 753.11 449.327C757.636 447.372 761.63 444.369 764.76 440.566C767.819 436.725 770.019 432.275 771.213 427.516C772.579 422.133 773.36 416.619 773.543 411.069V411.069Z" fill="#FA8E44"/>
<path d="M1013.9 337.332C1011.34 337.302 1008.9 336.275 1007.09 334.471C1005.28 332.667 1004.25 330.229 1004.22 327.678V291.208H891.301C888.743 291.179 886.299 290.153 884.49 288.349C882.681 286.545 881.652 284.107 881.623 281.556V243.656C881.623 237.461 883.176 232.336 886.283 228.282L993.464 93.4896C995.615 90.8696 997.587 89.1415 999.379 88.3051C1001.17 87.473 1003.62 87.0559 1006.73 87.0537H1060.86C1063.42 87.0834 1065.86 88.1101 1067.67 89.9141C1069.48 91.7181 1070.51 94.1563 1070.54 96.7073V234.003H1101.36C1103.92 234.033 1106.37 235.059 1108.17 236.863C1109.98 238.667 1111.01 241.105 1111.04 243.656V281.556C1111.01 284.107 1109.98 286.545 1108.17 288.349C1106.37 290.153 1103.92 291.179 1101.36 291.208H1070.54V327.678C1070.51 330.229 1069.48 332.668 1067.67 334.472C1065.86 336.276 1063.42 337.302 1060.86 337.332H1013.9ZM1006.01 234.003V168.216L953.675 234.003H1006.01Z" fill="#FA8E44"/>
<path d="M455.435 588.261C452.877 588.231 450.433 587.205 448.624 585.401C446.815 583.597 445.786 581.159 445.756 578.608V542.138H332.838C330.28 542.109 327.836 541.082 326.027 539.278C324.218 537.474 323.189 535.036 323.16 532.485V494.585C323.16 488.39 324.713 483.266 327.82 479.211L435.002 344.419C437.152 341.799 439.124 340.07 440.917 339.234C442.709 338.402 445.158 337.985 448.266 337.982H502.394C504.952 338.012 507.397 339.039 509.205 340.843C511.014 342.647 512.043 345.085 512.073 347.636V484.931H542.902C545.459 484.961 547.904 485.988 549.712 487.792C551.521 489.596 552.55 492.034 552.58 494.585V532.485C552.55 535.036 551.521 537.474 549.713 539.278C547.904 541.082 545.459 542.109 542.902 542.138H512.073V578.608C512.043 581.159 511.014 583.597 509.205 585.401C507.397 587.205 504.952 588.231 502.394 588.261H455.435ZM447.548 484.931V419.144L395.212 484.931H447.548Z" stroke="#887BB1" stroke-width="1.19242" stroke-linecap="round" stroke-linejoin="round"/>
<path d="M703.487 265.341C721.41 265.341 736.824 267.963 749.729 273.206C762.634 278.453 773.329 285.485 781.813 294.302C790.3 303.13 796.78 313.679 800.812 325.229C805.017 337.152 807.491 349.613 808.16 362.234C808.636 372.486 808.875 383.212 808.878 394.414C808.878 405.62 808.638 416.108 808.16 425.877C807.491 438.498 805.017 450.959 800.812 462.881C796.781 474.433 790.301 484.981 781.813 493.809C773.327 502.631 762.632 509.663 749.729 514.904C736.825 520.145 721.411 522.767 703.487 522.771C685.564 522.771 670.149 520.149 657.245 514.904C644.339 509.665 633.645 502.633 625.162 493.809C616.671 484.985 610.19 474.435 606.163 462.881C601.955 450.96 599.48 438.499 598.815 425.877C598.333 416.105 598.094 405.617 598.098 394.414C598.098 383.212 598.337 372.486 598.815 362.234C599.48 349.613 601.955 337.151 606.163 325.229C610.191 313.677 616.672 303.127 625.162 294.302C633.642 285.486 644.336 278.454 657.245 273.206C670.15 267.966 685.564 265.345 703.487 265.341ZM741.844 424.088C742.796 403.832 742.796 383.81 741.844 364.022C741.43 358.472 740.53 352.969 739.155 347.575C737.972 342.846 735.838 338.406 732.882 334.525C729.845 330.702 725.903 327.692 721.41 325.766C716.627 323.62 710.652 322.547 703.487 322.547C696.317 322.547 690.343 323.62 685.564 325.766C681.07 327.691 677.128 330.701 674.092 334.525C671.124 338.423 668.934 342.853 667.641 347.575C666.15 352.938 665.307 358.46 665.13 364.022C663.932 384.026 663.932 404.084 665.13 424.088C665.308 429.639 666.09 435.153 667.461 440.535C668.65 445.296 670.85 449.747 673.913 453.586C677.041 457.39 681.036 460.394 685.564 462.346C690.341 464.491 696.316 465.564 703.487 465.564C710.657 465.564 716.631 464.491 721.41 462.346C725.937 460.392 729.931 457.389 733.061 453.586C736.12 449.744 738.32 445.295 739.513 440.535C740.88 435.152 741.661 429.638 741.844 424.088V424.088Z" stroke="#887BB1" stroke-width="1.19242" stroke-linecap="round" stroke-linejoin="round"/>
<path d="M984.383 350.352C981.825 350.322 979.38 349.296 977.571 347.492C975.762 345.688 974.733 343.249 974.704 340.698V304.229H861.785C859.227 304.199 856.783 303.173 854.974 301.369C853.166 299.565 852.137 297.127 852.107 294.576V256.676C852.107 250.481 853.661 245.356 856.767 241.301L963.949 106.509C966.099 103.889 968.071 102.161 969.864 101.325C971.655 100.493 974.105 100.076 977.212 100.073H1031.34C1033.9 100.103 1036.34 101.13 1038.15 102.934C1039.96 104.738 1040.99 107.176 1041.02 109.727V247.022H1071.85C1074.41 247.052 1076.85 248.079 1078.66 249.883C1080.47 251.687 1081.5 254.125 1081.53 256.676V294.576C1081.5 297.127 1080.47 299.565 1078.66 301.369C1076.85 303.173 1074.41 304.199 1071.85 304.229H1041.02V340.698C1040.99 343.249 1039.96 345.687 1038.15 347.491C1036.34 349.295 1033.9 350.322 1031.34 350.352H984.383ZM976.495 247.022V181.235L924.159 247.022H976.495Z" stroke="#887BB1" stroke-width="1.19242" stroke-linecap="round" stroke-linejoin="round"/>
<path d="M330.604 603.874H1085.83" stroke="#887BB1" stroke-width="1.19242" stroke-linecap="round" stroke-linejoin="round"/>
<path d="M470.111 580.973L463.583 600.734L448.789 600.331L453.678 583.879" fill="white"/>
<path d="M470.111 580.973L463.583 600.734L448.789 600.331L453.678 583.879" stroke="#887BB1" stroke-width="1.19242" stroke-linecap="round" stroke-linejoin="round"/>
<path d="M525.933 282.16L516.944 282.909C519.128 301.225 511.328 314.754 501.102 324.424L511.014 339.985C528.805 316.525 525.933 282.16 525.933 282.16Z" fill="white" stroke="#887BB1" stroke-width="1.19242" stroke-linecap="round" stroke-linejoin="round"/>
<path d="M464.145 344.965L472.455 360.888C490.889 358.844 503.029 350.512 511.012 339.985L501.1 324.424C485.46 339.21 464.145 344.965 464.145 344.965Z" fill="#FA8E44" stroke="#887BB1" stroke-width="1.19242" stroke-linecap="round" stroke-linejoin="round"/>
<path d="M525.805 286.172L517.472 286.029C517.121 285.815 516.799 285.556 516.514 285.261C516.077 284.795 516.987 283.132 516.987 283.132C516.987 283.132 513.903 278.317 513.2 274.205C512.496 270.095 509.232 266.053 511.201 266C513.171 265.947 513.267 269.484 514.242 269.064C514.729 268.855 514.891 265.617 514.336 262.46C513.783 259.305 512.513 256.23 513.9 256.488C516.674 257.002 518.177 267.119 518.177 267.119C518.177 267.119 518.381 263.858 518.367 260.446C518.353 256.785 518.179 252.957 519.917 252.982C521.417 253.002 521.39 256.368 521.795 259.719C522.084 261.925 522.499 264.112 523.039 266.27C523.039 266.27 523.778 255.206 524.993 256.352C526.208 257.498 525.329 267.333 526.034 267.33C526.741 267.325 527.611 260.442 528.612 261.005C529.615 261.568 528.556 273.396 528.556 273.396C528.556 273.396 528.936 280.331 526.264 283.55C526.264 283.55 527.453 285.669 525.805 286.172Z" fill="#222222"/>
<path d="M506.018 319.44L497.125 324.987L509.63 344.929L518.522 339.382L506.018 319.44Z" fill="#FA8E44" stroke="#887BB1" stroke-width="1.19242" stroke-linecap="round" stroke-linejoin="round"/>
<path d="M390.782 203.797C390.782 209.084 388.676 214.155 384.928 217.894C381.179 221.633 376.096 223.734 370.795 223.735H276.107C270.805 223.734 265.721 221.634 261.973 217.895C258.224 214.156 256.118 209.085 256.117 203.797V203.797C256.118 198.509 258.224 193.438 261.972 189.699C265.721 185.96 270.805 183.859 276.107 183.859H370.795C376.096 183.86 381.18 185.961 384.928 189.7C388.676 193.439 390.782 198.51 390.782 203.797V203.797Z" fill="white" stroke="#887BB1" stroke-width="1.19242" stroke-linecap="round" stroke-linejoin="round"/>
<path d="M364.726 207.853H279.025C274.936 207.851 270.969 206.468 267.77 203.929C264.571 201.389 262.328 197.844 261.408 193.871C259.924 196.62 259.179 199.707 259.249 202.829C259.318 205.951 260.198 209.002 261.803 211.683C263.408 214.364 265.683 216.584 268.405 218.126C271.128 219.668 274.205 220.479 277.336 220.48H363.038C365.762 220.487 368.452 219.879 370.907 218.701C373.362 217.524 375.517 215.807 377.212 213.68C378.906 211.553 380.096 209.071 380.692 206.42C381.288 203.768 381.274 201.017 380.651 198.372C379.102 201.239 376.804 203.635 374 205.304C371.196 206.973 367.991 207.854 364.726 207.853V207.853Z" fill="#FA8E44"/>
<path d="M432.865 211.14C432.866 216.032 431.901 220.877 430.024 225.397C428.147 229.917 425.396 234.024 421.928 237.484C418.46 240.943 414.342 243.688 409.81 245.56C405.278 247.432 400.421 248.395 395.516 248.394V248.394C390.611 248.395 385.754 247.432 381.222 245.56C376.691 243.688 372.573 240.943 369.105 237.484C365.636 234.024 362.885 229.917 361.009 225.397C359.132 220.877 358.167 216.032 358.168 211.14V196.451C358.167 191.559 359.133 186.714 361.01 182.194C362.886 177.674 365.637 173.567 369.105 170.108C372.574 166.648 376.691 163.904 381.223 162.032C385.754 160.16 390.611 159.197 395.516 159.197V159.197C400.421 159.197 405.278 160.16 409.81 162.032C414.341 163.904 418.459 166.648 421.927 170.108C425.396 173.567 428.147 177.674 430.023 182.194C431.9 186.714 432.866 191.559 432.865 196.451V211.14Z" fill="white" stroke="#887BB1" stroke-width="1.19242" stroke-linecap="round" stroke-linejoin="round"/>
<path d="M406.706 228.399C402.363 228.4 398.063 227.547 394.051 225.89C390.039 224.233 386.394 221.803 383.323 218.741C380.253 215.678 377.817 212.042 376.156 208.04C374.495 204.039 373.64 199.75 373.641 195.419V182.414C373.637 178.139 374.47 173.904 376.091 169.947C371.601 172.965 367.924 177.038 365.383 181.806C362.843 186.575 361.516 191.893 361.52 197.293V210.298C361.519 217.943 364.182 225.35 369.052 231.254C373.922 237.157 380.697 241.19 388.218 242.662C395.739 244.134 403.539 242.955 410.285 239.325C417.03 235.696 422.302 229.841 425.199 222.764C419.74 226.447 413.297 228.41 406.706 228.399V228.399Z" fill="#FA8E44"/>
<path d="M554.908 232.129C554.909 237.642 553.82 243.1 551.705 248.193C549.591 253.286 546.491 257.913 542.583 261.811C538.675 265.708 534.035 268.8 528.929 270.909C523.823 273.018 518.35 274.104 512.824 274.103H438.126C432.599 274.103 427.127 273.018 422.021 270.909C416.915 268.799 412.276 265.707 408.368 261.81C404.46 257.912 401.36 253.285 399.246 248.192C397.131 243.1 396.043 237.641 396.043 232.129V175.463C396.043 169.951 397.131 164.492 399.246 159.4C401.361 154.307 404.461 149.68 408.368 145.783C412.276 141.885 416.915 138.793 422.021 136.684C427.127 134.575 432.599 133.489 438.126 133.489H512.824C518.35 133.489 523.823 134.574 528.929 136.683C534.035 138.792 538.674 141.884 542.582 145.782C546.49 149.679 549.59 154.307 551.705 159.399C553.82 164.492 554.908 169.95 554.908 175.463V232.129Z" fill="white" stroke="#887BB1" stroke-width="1.19242" stroke-linecap="round" stroke-linejoin="round"/>
<path d="M526.974 249.303H457.545C452.409 249.304 447.322 248.295 442.576 246.334C437.831 244.374 433.519 241.5 429.886 237.877C426.254 234.255 423.373 229.954 421.407 225.22C419.442 220.487 418.43 215.414 418.431 210.29V157.621C418.428 152.723 419.353 147.869 421.157 143.314C414.725 146.578 409.323 151.553 405.551 157.689C401.779 163.825 399.782 170.882 399.783 178.08V230.75C399.783 235.873 400.794 240.946 402.76 245.68C404.725 250.413 407.607 254.714 411.239 258.337C414.871 261.959 419.183 264.833 423.929 266.793C428.674 268.754 433.761 269.763 438.897 269.762H508.326C516.177 269.762 523.846 267.406 530.336 263C536.826 258.594 541.836 252.341 544.716 245.057C539.223 247.854 533.142 249.309 526.974 249.303V249.303Z" fill="#FA8E44"/>
<path d="M561.415 105.68C555.427 105.635 549.481 106.683 543.872 108.774C543.795 108.772 543.719 108.764 543.642 108.764C540.216 108.764 536.934 110.887 533.901 114.767C531.188 117.3 529.397 120.232 528.818 123.387C520.923 140.4 515.672 170.593 515.672 205.011C515.672 258.166 528.194 301.257 543.642 301.257C545.135 301.242 546.601 300.859 547.91 300.143C552.312 301.332 556.854 301.926 561.415 301.912C579.536 301.912 594.228 292.984 594.228 281.974V125.62C594.228 114.608 579.536 105.68 561.415 105.68Z" fill="white" stroke="#887BB1" stroke-width="1.19242" stroke-linecap="round" stroke-linejoin="round"/>
<path d="M496.342 229.707C496.342 230.357 496.084 230.981 495.623 231.44C495.162 231.9 494.537 232.158 493.886 232.158V232.158C493.235 232.156 492.612 231.897 492.154 231.437C491.695 230.978 491.437 230.356 491.438 229.707V168.845C491.439 168.197 491.697 167.577 492.156 167.119C492.615 166.662 493.237 166.404 493.886 166.402V166.402C494.536 166.402 495.16 166.659 495.62 167.117C496.081 167.575 496.341 168.196 496.342 168.845V229.707Z" fill="#FA8E44"/>
<path d="M478.628 229.707C478.628 230.357 478.369 230.98 477.909 231.44C477.448 231.899 476.823 232.158 476.171 232.158V232.158C475.521 232.156 474.898 231.897 474.439 231.437C473.98 230.978 473.722 230.355 473.723 229.707V168.844C473.724 168.197 473.983 167.577 474.442 167.119C474.9 166.661 475.522 166.403 476.171 166.402V166.402C476.822 166.402 477.445 166.659 477.906 167.116C478.367 167.574 478.626 168.196 478.628 168.844V229.707Z" fill="#FA8E44"/>
<path d="M608.907 205.011C608.907 258.167 596.384 301.257 580.936 301.257C565.489 301.257 552.967 258.167 552.967 205.011C552.967 151.855 565.489 108.765 580.936 108.765C596.384 108.765 608.907 151.855 608.907 205.011Z" fill="#887BB1" stroke="#887BB1" stroke-width="1.19242" stroke-miterlimit="10"/>
<path d="M574.42 220.262C574.42 221.249 574.027 222.195 573.328 222.893C572.628 223.59 571.68 223.982 570.69 223.982V223.982C570.201 223.982 569.716 223.886 569.263 223.699C568.811 223.512 568.4 223.238 568.053 222.893C567.707 222.547 567.432 222.137 567.245 221.686C567.057 221.235 566.961 220.751 566.961 220.262V187.714C566.961 187.226 567.057 186.742 567.245 186.29C567.432 185.839 567.707 185.429 568.053 185.084C568.4 184.738 568.811 184.464 569.263 184.277C569.716 184.09 570.201 183.994 570.69 183.994C571.68 183.994 572.628 184.386 573.328 185.084C574.027 185.781 574.42 186.727 574.42 187.714V220.262Z" fill="#222222"/>
<path d="M595.399 207.708C595.398 208.695 595.005 209.641 594.306 210.338C593.607 211.036 592.658 211.428 591.669 211.428V211.428C590.68 211.428 589.731 211.036 589.032 210.338C588.333 209.641 587.94 208.695 587.939 207.708V175.159C587.94 174.173 588.333 173.227 589.032 172.529C589.731 171.832 590.68 171.44 591.669 171.439V171.439C592.658 171.439 593.607 171.831 594.306 172.529C595.005 173.227 595.398 174.173 595.399 175.159V207.708Z" fill="#222222"/>
<path d="M517.428 572.371L514.514 589.227L498.43 591.784L502.044 575.277" fill="white"/>
<path d="M517.428 572.371L514.514 589.227L498.43 591.784L502.044 575.277" stroke="#887BB1" stroke-width="1.19242" stroke-linecap="round" stroke-linejoin="round"/>
<path d="M444.016 336.741C444.016 336.741 419.766 340.368 421.706 363.832C422.364 371.787 436.014 440.509 436.014 440.509L499.676 434.464C499.676 434.464 482.576 346.9 471.664 339.643C460.751 332.386 444.016 336.741 444.016 336.741Z" fill="#222222"/>
<path d="M436.014 440.509C436.014 440.509 439.087 459.925 445.957 478.243C456.308 505.842 465.177 519.556 462.69 540.015C458.966 570.663 447.267 587.948 447.267 587.948L474.19 592.248C474.19 592.248 490.972 535.986 488.487 527.926C484.122 490.192 480.094 431.83 480.094 431.83L436.014 440.509Z" fill="#222222"/>
<path d="M495.309 424.908C495.309 424.908 527.435 471.659 528.89 504.677C530.076 531.588 519.41 580.042 519.41 580.042L496.922 579.334C496.922 579.334 504.959 517.696 499.986 502.817C485.436 476.694 463.623 444.849 463.623 444.849L495.309 424.908Z" fill="#222222"/>
<path d="M437.47 346.718C437.47 346.718 453.839 341.82 460.023 358.51C466.207 375.2 460.739 386.936 450.799 388.727C430.058 392.462 415.279 349.259 437.47 346.718Z" fill="#FA8E44"/>
<path d="M477.301 361.424C477.857 363.156 470.571 367.58 470.571 367.58C469.442 364.653 468.076 361.822 466.488 359.115C465.19 356.991 463.711 354.983 462.067 353.113C459.294 350.527 455.656 346.899 451.581 345.102C450.101 344.418 448.561 343.871 446.981 343.468C443.723 342.636 443.515 339.348 446.835 338.781C448.477 338.285 450.189 338.058 451.904 338.108C453.638 338.16 455.36 338.418 457.032 338.88C458.785 339.235 460.492 339.79 462.118 340.534C463.713 341.282 465.238 342.17 466.677 343.187C468.236 344.141 474.189 351.736 477.301 361.424Z" fill="#FA8E44"/>
<path d="M444.613 307.579L442.134 323.56L430.909 313.28L426.922 305.342L431.407 301.117C431.407 301.117 448.35 287.449 451.092 284.342C453.832 281.235 462.799 298.613 455.076 305.82" fill="#222222"/>
<path d="M440.258 320.776L441.653 340.368C441.653 340.368 448.655 343.906 452.657 343.362C455.023 343.049 457.179 341.845 458.681 339.996L452.201 320.897L440.258 320.776Z" fill="white" stroke="#887BB1" stroke-width="1.19242" stroke-linecap="round" stroke-linejoin="round"/>
<path d="M453.56 302.1L441.556 306.828C441.556 306.828 442.806 312.278 442.547 312.911C442.544 312.912 439.116 314.977 439.114 314.979C437.447 316.132 437.286 318.775 438.754 320.887C440.22 322.998 442.759 323.774 444.426 322.621C444.805 322.354 445.116 322.002 445.335 321.594C448.789 325.081 451.275 326.676 455.841 326.676C464.5 326.676 453.56 302.1 453.56 302.1Z" fill="white" stroke="#887BB1" stroke-width="0.794946" stroke-linecap="round" stroke-linejoin="round"/>
<path d="M485.485 281.641H478.573C479.378 297.169 471.227 311.52 461.881 322.854L474.137 333.013C485.926 308.149 485.485 281.641 485.485 281.641Z" fill="white" stroke="#887BB1" stroke-width="1.19242" stroke-linecap="round" stroke-linejoin="round"/>
<path d="M435.221 347.297C433.583 349.228 432.162 351.334 430.985 353.575C428.736 357.796 428.736 363.614 432.375 365.79C444.015 373.774 454.929 360.736 461.968 352.258C463.423 350.495 464.781 348.716 466.057 346.836C467.334 344.959 468.529 343.124 469.649 341.169C470.474 339.818 471.252 338.653 471.99 337.277C472.75 335.866 473.46 334.442 474.137 333.013L461.881 322.854C461.711 323.058 438.923 343.272 435.221 347.297Z" fill="#FA8E44" stroke="#887BB1" stroke-width="1.19242" stroke-linecap="round" stroke-linejoin="round"/>
<path d="M463.885 315.061L457.176 323.102L475.302 338.148L482.011 330.107L463.885 315.061Z" fill="#FA8E44" stroke="#887BB1" stroke-width="1.19242" stroke-linecap="round" stroke-linejoin="round"/>
<path d="M492.943 417.764C492.943 417.764 454.08 428.475 433.193 425.905L434.718 444.539C434.718 444.539 475.078 434.642 493.973 424.787C494.307 424.612 493.989 423.728 493.989 423.728L492.943 417.764Z" fill="white" stroke="#887BB1" stroke-width="1.19242" stroke-linecap="round" stroke-linejoin="round"/>
<path d="M510.958 601.362L509.503 599.549L495.148 598.584L493.922 602.511C493.922 602.511 535.573 607.228 536.301 604.143C536.533 603.158 536.764 602.582 536.688 602.085L510.958 601.362Z" fill="#FA8E44" stroke="#887BB1" stroke-width="1.19242" stroke-linecap="round" stroke-linejoin="round"/>
<path d="M510.959 601.362L536.688 602.085C536.527 601.029 538.333 599.89 532.391 596.434C529.167 594.56 522.363 594.452 519.932 592.625C517.39 590.685 515.248 588.272 513.627 585.52C513.627 585.52 508.109 592.232 505.017 590.962C501.926 589.691 498.288 588.543 498.288 588.543L495.148 598.585L509.504 599.549L510.959 601.362Z" fill="#FA8E44" stroke="#887BB1" stroke-width="1.19242" stroke-linecap="round" stroke-linejoin="round"/>
<path d="M460.641 612.072L459.257 610.203L444.951 608.685L443.572 612.56C443.572 612.56 485.009 618.887 485.855 615.833C486.127 614.856 486.38 614.289 486.323 613.791L460.641 612.072Z" fill="#FA8E44" stroke="#887BB1" stroke-width="1.19242" stroke-linecap="round" stroke-linejoin="round"/>
<path d="M460.641 612.072L486.324 613.79C486.203 612.728 488.052 611.661 482.25 607.976C479.102 605.978 472.305 605.608 469.948 603.687C467.483 601.651 465.437 599.156 463.924 596.343C463.924 596.343 458.149 602.837 455.109 601.448C452.069 600.059 448.479 598.771 448.479 598.771L444.951 608.684L459.257 610.203L460.641 612.072Z" fill="#FA8E44" stroke="#887BB1" stroke-width="1.19242" stroke-linecap="round" stroke-linejoin="round"/>
<path d="M486.534 284.765L478.066 284.389C477.715 284.161 477.395 283.89 477.113 283.581C476.682 283.097 477.653 281.43 477.653 281.43C477.653 281.43 474.65 276.449 474.048 272.249C473.447 268.05 470.238 263.851 472.243 263.851C474.249 263.851 474.249 267.451 475.252 267.05C475.752 266.851 476.007 263.564 475.53 260.338C475.054 257.114 473.848 253.953 475.252 254.253C478.058 254.852 479.306 265.181 479.306 265.181C479.306 265.181 479.603 261.87 479.683 258.401C479.772 254.679 479.7 250.782 481.466 250.855C482.991 250.916 482.871 254.337 483.19 257.757C483.422 260.007 483.783 262.242 484.272 264.451C484.272 264.451 485.332 253.221 486.534 254.42C487.737 255.619 486.571 265.596 487.29 265.611C488.007 265.626 489.084 258.652 490.086 259.252C491.089 259.851 489.686 271.848 489.686 271.848C489.686 271.848 489.88 278.912 487.073 282.111C487.073 282.111 488.224 284.299 486.534 284.765Z" fill="#222222"/>
<path d="M475.308 378C476.201 380.317 476.146 382.493 475.185 382.862C474.224 383.231 472.72 381.651 471.826 379.335C470.934 377.017 470.989 374.839 471.951 374.471C472.91 374.103 474.414 375.682 475.308 378Z" fill="white"/>
<path d="M483.233 373.196C484.126 375.512 484.071 377.689 483.11 378.058C482.149 378.426 480.646 376.847 479.752 374.531C478.86 372.213 478.914 370.035 479.877 369.666C480.836 369.299 482.339 370.878 483.233 373.196Z" fill="white"/>
<path d="M432.543 423.771H448.082C449.319 423.771 450.505 424.26 451.379 425.133C452.254 426.005 452.745 427.188 452.745 428.421V459.729C452.745 460.962 452.254 462.144 451.38 463.016C450.505 463.888 449.32 464.378 448.083 464.378H432.543C431.306 464.378 430.121 463.888 429.246 463.016C428.372 462.144 427.881 460.962 427.881 459.729V428.421C427.881 427.187 428.372 426.005 429.246 425.132C430.121 424.26 431.307 423.771 432.543 423.771Z" fill="#E8AA7E" stroke="#887BB1" stroke-width="1.19242" stroke-linecap="round" stroke-linejoin="round"/>
<path d="M1086.31 491.248C1086.2 489.846 1086.1 488.525 1086 487.276C1085.91 486.027 1085.9 484.853 1085.84 483.77C1085.79 482.689 1085.73 481.69 1085.74 480.789C1085.72 479.605 1085.7 478.611 1085.7 477.776C1087.77 475.75 1102.59 460.057 1090.41 437.759C1090.41 437.759 1067.89 454.013 1085.3 477.766C1085.17 478.587 1085.03 479.578 1084.89 480.745C1084.67 482.548 1084.5 484.747 1084.33 487.277C1084.27 488.54 1084.22 489.887 1084.16 491.305C1084.08 492.73 1084.3 494.216 1084.36 495.772C1084.45 496.984 1084.51 498.25 1084.61 499.542C1083.77 498.448 1082.67 497.009 1081.57 495.56C1081.01 494.833 1080.45 494.1 1079.93 493.425C1079.73 493.178 1079.53 492.939 1079.34 492.704C1082.71 461.809 1060.28 457.45 1060.28 457.45C1060.83 490.026 1074.06 492.85 1078.14 492.943C1078.44 493.31 1078.76 493.696 1079.09 494.107C1079.61 494.784 1080.17 495.509 1080.72 496.228C1081.82 497.674 1082.93 499.119 1083.75 500.206C1083.88 500.332 1083.93 500.495 1084.06 500.587C1084.19 500.687 1084.31 500.778 1084.42 500.869C1084.55 500.959 1084.63 501.023 1084.73 501.101C1084.9 502.621 1085.07 504.176 1085.24 505.782C1085.34 506.669 1085.42 507.569 1085.55 508.476C1085.69 509.377 1085.83 510.292 1085.97 511.217C1086.27 513.066 1086.57 514.957 1086.87 516.876C1087.25 518.81 1087.61 520.708 1088.05 522.672C1088.26 523.601 1088.48 524.54 1088.69 525.476C1088.57 525.228 1088.43 524.986 1088.28 524.753C1088.02 524.314 1087.75 523.871 1087.48 523.424C1086.94 522.535 1086.41 521.639 1085.9 520.804C1085.35 519.992 1084.84 519.238 1084.4 518.587C1084.3 518.428 1084.19 518.276 1084.08 518.131C1083.94 518.005 1083.81 517.894 1083.7 517.778C1083.58 517.677 1083.49 517.611 1083.39 517.526C1082.73 512.725 1078.67 493.772 1055.26 489.485C1055.26 489.485 1053.76 517.126 1083.15 518.614C1083.17 518.663 1083.19 518.708 1083.21 518.761C1083.3 518.919 1083.4 519.071 1083.52 519.215C1083.95 519.852 1084.45 520.594 1084.99 521.387C1085.49 522.211 1086.02 523.088 1086.55 523.976C1086.81 524.414 1087.08 524.853 1087.34 525.287C1087.6 525.705 1087.84 526.139 1088.04 526.584C1088.47 527.45 1088.87 528.255 1089.21 528.941C1089.28 529.113 1089.37 529.277 1089.47 529.431C1089.54 529.515 1089.6 529.591 1089.67 529.673C1090.52 533.269 1091.39 536.891 1092.03 540.544C1092.43 542.55 1092.67 544.574 1092.95 546.58C1093.08 547.587 1093.12 548.601 1093.22 549.6C1093.29 550.607 1093.4 551.609 1093.4 552.61C1093.4 552.838 1093.4 553.056 1093.41 553.286C1093.34 553.15 1093.27 553.012 1093.19 552.874C1092.87 552.242 1092.51 551.627 1092.12 551.033C1091.76 550.387 1091.27 549.793 1090.83 549.148C1090.34 548.546 1089.85 547.923 1089.31 547.345C1088.78 546.842 1088.29 546.294 1087.72 545.838C1087.86 545.791 1087.99 545.762 1088.13 545.717C1088.13 545.717 1080.48 522.893 1055.7 527.151C1055.7 527.151 1061.53 553.256 1086.47 546.205C1086.61 546.319 1086.75 546.425 1086.88 546.537C1087.46 547.019 1088 547.535 1088.51 548.082C1089.03 548.631 1089.5 549.227 1089.97 549.802C1090.39 550.417 1090.86 550.987 1091.21 551.608C1091.6 552.206 1091.94 552.799 1092.24 553.379C1092.56 553.951 1092.81 554.512 1093.05 555.026C1093.19 555.28 1093.24 555.555 1093.38 555.776C1093.4 555.808 1093.42 555.842 1093.44 555.875C1093.45 556.776 1093.44 557.671 1093.38 558.562C1093.33 559.542 1093.3 560.515 1093.26 561.482C1093.17 562.45 1093.06 563.411 1092.96 564.358C1092.87 565.31 1092.76 566.249 1092.67 567.184C1092.52 568.115 1092.37 569.035 1092.22 569.942C1091.92 571.763 1091.67 573.546 1091.25 575.255C1090.87 576.97 1090.5 578.639 1090.14 580.259C1090.04 580.637 1089.94 581.008 1089.84 581.381C1089.75 581.018 1089.65 580.653 1089.53 580.292C1089.06 578.833 1088.38 577.447 1087.52 576.177C1087.43 576.061 1087.39 575.902 1087.27 575.814C1087.15 575.717 1087.04 575.635 1086.93 575.555C1086.79 575.451 1086.67 575.378 1086.55 575.298C1086.33 572.766 1084 554.217 1063.43 552.108C1063.43 552.108 1062.12 576.416 1086.1 575.598C1086.15 575.74 1086.2 575.882 1086.26 576.055C1086.31 576.172 1086.35 576.302 1086.39 576.435C1086.44 576.562 1086.56 576.651 1086.63 576.781C1087.43 577.966 1088.06 579.259 1088.5 580.622C1088.74 581.342 1088.91 582.084 1089.02 582.837C1089.07 583.18 1089.11 583.526 1089.12 583.874C1089.12 583.926 1089.12 583.969 1089.12 584.018C1089.04 584.309 1088.97 584.6 1088.89 584.886C1088.69 585.623 1088.49 586.353 1088.29 587.064C1088.08 587.764 1087.84 588.444 1087.68 589.129C1087.34 590.494 1087.02 591.784 1086.72 593.001C1086.14 595.447 1085.51 597.541 1085.01 599.273C1084.01 602.746 1083.47 604.75 1083.47 604.75C1083.47 604.75 1084.32 602.869 1085.77 599.547C1086.48 597.879 1087.38 595.867 1088.26 593.495C1088.58 592.687 1088.91 591.827 1089.25 590.943C1089.33 590.906 1089.4 590.875 1089.48 590.832C1089.6 590.774 1089.74 590.709 1089.87 590.64C1090.01 590.581 1090.09 590.433 1090.22 590.336C1090.47 590.095 1090.73 589.874 1091.01 589.678C1091.31 589.473 1091.64 589.256 1091.97 589.033C1092.3 588.809 1092.63 588.558 1092.99 588.341C1093.37 588.16 1093.75 587.963 1094.13 587.767C1094.5 587.559 1094.88 587.381 1095.28 587.235C1095.67 587.082 1096.07 586.939 1096.43 586.803C1096.79 586.669 1097.16 586.559 1097.54 586.475C1097.89 586.391 1098.22 586.274 1098.53 586.229C1098.69 586.217 1098.84 586.191 1098.99 586.152C1099.06 586.114 1099.12 586.086 1099.19 586.054C1103.43 587.176 1123.04 591.056 1136.05 570.654C1136.05 570.654 1111.19 559.009 1098.69 585.103C1098.58 585.122 1098.46 585.162 1098.33 585.172C1097.99 585.224 1097.64 585.341 1097.26 585.429C1096.87 585.521 1096.48 585.637 1096.09 585.777C1095.7 585.924 1095.29 586.078 1094.87 586.239C1094.45 586.397 1094.04 586.584 1093.65 586.8C1093.25 587.003 1092.85 587.21 1092.45 587.415C1092.07 587.638 1091.72 587.899 1091.36 588.131C1091.02 588.368 1090.68 588.599 1090.36 588.82C1090.21 588.915 1090.06 589.025 1089.93 589.149C1090.34 587.989 1090.61 586.732 1090.97 585.461C1091.38 583.957 1091.81 582.395 1092.25 580.774C1092.6 579.129 1092.98 577.435 1093.37 575.695C1093.79 573.957 1094.05 572.134 1094.36 570.279C1094.51 569.355 1094.66 568.416 1094.81 567.472C1094.87 566.983 1094.92 566.483 1094.97 565.988C1095.02 565.967 1095.07 565.944 1095.13 565.925C1095.24 565.879 1095.28 565.763 1095.37 565.698C1096 565.068 1096.85 564.229 1097.68 563.391C1098.52 562.552 1099.36 561.711 1099.99 561.076C1100.04 561.016 1100.11 560.975 1100.15 560.924C1105.55 560.144 1123.73 555.849 1128.08 533.13C1128.08 533.13 1100.28 531.424 1098.66 560.889C1098.13 561.418 1097.53 562.027 1096.92 562.625C1096.29 563.249 1095.67 563.871 1095.13 564.409C1095.22 563.494 1095.33 562.575 1095.41 561.637C1095.45 560.643 1095.49 559.642 1095.54 558.639C1095.68 556.626 1095.59 554.588 1095.56 552.526C1095.56 551.5 1095.44 550.473 1095.37 549.438C1095.27 548.409 1095.23 547.365 1095.09 546.333C1094.88 544.8 1094.67 543.258 1094.42 541.726C1094.45 541.557 1094.47 541.388 1094.48 541.217C1094.6 540.254 1094.64 539.129 1094.85 537.92C1095.05 536.715 1095.23 535.427 1095.49 534.145C1095.95 531.583 1096.53 529.035 1096.97 527.124C1097.03 526.899 1097.08 526.671 1097.12 526.44C1097.13 526.316 1097.14 526.197 1097.14 526.078C1099.84 524.741 1119.57 514.028 1110.89 489.924C1110.89 489.924 1083.57 506.719 1096.37 525.533C1096.36 525.556 1096.35 525.579 1096.34 525.601C1096.26 525.787 1096.17 525.983 1096.07 526.193C1095.99 526.402 1095.99 526.644 1095.92 526.882C1095.47 528.802 1094.89 531.36 1094.42 533.95C1094.16 535.238 1093.98 536.548 1093.78 537.769C1093.77 537.857 1093.77 537.943 1093.75 538.031C1093.09 534.659 1092.29 531.348 1091.52 528.081C1091.04 526.11 1090.6 524.155 1090.17 522.237C1089.73 520.317 1089.37 518.344 1089 516.487C1088.7 514.595 1088.4 512.725 1088.12 510.899C1087.97 509.987 1087.83 509.083 1087.68 508.19C1087.56 507.295 1087.49 506.407 1087.39 505.533C1087.22 503.962 1087.06 502.442 1086.9 500.953C1086.95 500.523 1087.04 500.096 1087.15 499.677C1087.27 499.129 1087.41 498.587 1087.59 498.055C1087.75 497.514 1087.95 496.984 1088.17 496.464C1088.36 495.946 1088.62 495.461 1088.84 494.976C1089.27 494.112 1089.76 493.276 1090.3 492.473C1090.41 492.289 1090.56 492.151 1090.64 491.972C1090.72 491.792 1090.81 491.616 1090.88 491.459C1090.88 491.447 1090.89 491.44 1090.89 491.426C1095.18 490.097 1108.95 484.432 1105.3 467.399C1105.3 467.399 1085.56 472.023 1089.61 491.557C1089.55 491.665 1089.48 491.768 1089.41 491.866C1088.84 492.708 1088.32 493.585 1087.87 494.491C1087.64 495.003 1087.37 495.507 1087.17 496.056C1086.97 496.534 1086.79 497.025 1086.64 497.525C1086.6 496.89 1086.56 496.265 1086.52 495.651C1086.4 494.115 1086.4 492.646 1086.31 491.248Z" fill="#887BB1"/>
<path d="M310.835 390.161C310.835 390.826 310.637 391.475 310.267 392.028C309.897 392.581 309.371 393.012 308.755 393.266C308.139 393.521 307.462 393.587 306.808 393.457C306.154 393.328 305.554 393.008 305.083 392.538C304.611 392.068 304.29 391.469 304.16 390.817C304.03 390.165 304.097 389.489 304.352 388.875C304.607 388.261 305.039 387.736 305.593 387.367C306.148 386.997 306.799 386.8 307.466 386.8C308.359 386.8 309.216 387.154 309.848 387.785C310.48 388.415 310.835 389.27 310.835 390.161V390.161Z" fill="#FA8E44"/>
<path d="M330.005 390.161C330.005 390.826 329.807 391.475 329.437 392.028C329.067 392.581 328.541 393.012 327.925 393.266C327.309 393.521 326.632 393.587 325.978 393.457C325.324 393.328 324.724 393.008 324.253 392.538C323.781 392.068 323.46 391.469 323.33 390.817C323.2 390.165 323.267 389.489 323.522 388.875C323.777 388.261 324.209 387.736 324.763 387.367C325.317 386.997 325.969 386.8 326.635 386.8C327.529 386.8 328.386 387.154 329.018 387.785C329.65 388.415 330.005 389.27 330.005 390.161Z" fill="#FA8E44"/>
<path d="M349.175 390.161C349.175 390.826 348.977 391.476 348.607 392.028C348.237 392.581 347.71 393.012 347.094 393.266C346.479 393.521 345.801 393.587 345.147 393.457C344.493 393.327 343.893 393.007 343.422 392.537C342.951 392.067 342.63 391.468 342.5 390.816C342.37 390.164 342.437 389.488 342.693 388.874C342.948 388.26 343.38 387.735 343.934 387.366C344.489 386.997 345.141 386.8 345.807 386.8C346.249 386.8 346.687 386.887 347.096 387.056C347.505 387.225 347.876 387.473 348.189 387.785C348.501 388.097 348.749 388.467 348.919 388.875C349.088 389.283 349.175 389.72 349.175 390.161V390.161Z" fill="#FA8E44"/>
<path d="M368.344 390.161C368.344 390.826 368.147 391.475 367.777 392.028C367.406 392.581 366.88 393.011 366.264 393.266C365.649 393.52 364.971 393.587 364.318 393.457C363.664 393.327 363.064 393.007 362.592 392.537C362.121 392.067 361.8 391.469 361.67 390.817C361.54 390.165 361.607 389.489 361.862 388.875C362.117 388.261 362.549 387.736 363.103 387.367C363.657 386.997 364.309 386.8 364.975 386.8C365.418 386.8 365.856 386.887 366.265 387.056C366.673 387.225 367.045 387.472 367.358 387.784C367.671 388.096 367.919 388.467 368.088 388.875C368.257 389.282 368.344 389.72 368.344 390.161V390.161Z" fill="#FA8E44"/>
<path d="M387.516 390.161C387.516 390.826 387.319 391.475 386.948 392.028C386.578 392.581 386.052 393.012 385.436 393.266C384.821 393.52 384.143 393.587 383.489 393.457C382.836 393.327 382.235 393.007 381.764 392.537C381.293 392.067 380.972 391.468 380.842 390.816C380.712 390.165 380.779 389.489 381.034 388.875C381.289 388.261 381.721 387.736 382.275 387.366C382.829 386.997 383.481 386.8 384.147 386.8C385.041 386.8 385.898 387.154 386.529 387.785C387.161 388.415 387.516 389.27 387.516 390.161V390.161Z" fill="#FA8E44"/>
<path d="M406.686 390.161C406.686 390.826 406.489 391.476 406.118 392.028C405.748 392.581 405.222 393.012 404.606 393.266C403.99 393.521 403.313 393.587 402.659 393.457C402.005 393.327 401.405 393.007 400.934 392.537C400.462 392.067 400.142 391.468 400.012 390.816C399.882 390.164 399.949 389.488 400.204 388.874C400.46 388.26 400.892 387.735 401.446 387.366C402.001 386.997 402.652 386.8 403.319 386.8C404.212 386.801 405.069 387.155 405.7 387.785C406.332 388.415 406.686 389.27 406.686 390.161V390.161Z" fill="#FA8E44"/>
<path d="M310.835 411.073C310.835 411.738 310.638 412.388 310.268 412.941C309.898 413.494 309.372 413.925 308.756 414.179C308.14 414.434 307.463 414.501 306.809 414.371C306.155 414.242 305.555 413.922 305.083 413.452C304.612 412.982 304.291 412.383 304.161 411.731C304.03 411.079 304.097 410.403 304.352 409.789C304.607 409.175 305.039 408.65 305.593 408.28C306.147 407.911 306.799 407.714 307.466 407.714C308.359 407.714 309.215 408.069 309.847 408.698C310.479 409.328 310.834 410.182 310.835 411.073V411.073Z" fill="#FA8E44"/>
<path d="M330.005 411.073C330.005 411.738 329.808 412.388 329.438 412.941C329.068 413.494 328.541 413.925 327.926 414.179C327.31 414.434 326.633 414.501 325.979 414.371C325.325 414.242 324.724 413.922 324.253 413.452C323.782 412.982 323.461 412.383 323.33 411.731C323.2 411.079 323.267 410.403 323.522 409.789C323.777 409.175 324.209 408.65 324.763 408.28C325.317 407.911 325.969 407.714 326.635 407.714C327.529 407.714 328.385 408.068 329.017 408.698C329.648 409.328 330.004 410.182 330.005 411.073V411.073Z" fill="#FA8E44"/>
<path d="M349.175 411.073C349.175 411.738 348.978 412.388 348.608 412.941C348.237 413.494 347.711 413.925 347.095 414.179C346.48 414.434 345.802 414.501 345.148 414.371C344.494 414.241 343.894 413.921 343.422 413.451C342.951 412.981 342.63 412.382 342.5 411.73C342.37 411.078 342.437 410.402 342.692 409.788C342.948 409.173 343.38 408.649 343.934 408.279C344.489 407.91 345.14 407.713 345.807 407.714C346.7 407.715 347.556 408.069 348.188 408.699C348.819 409.328 349.174 410.182 349.175 411.073Z" fill="#FA8E44"/>
<path d="M368.344 411.073C368.345 411.738 368.147 412.388 367.777 412.941C367.407 413.494 366.881 413.924 366.265 414.179C365.65 414.434 364.972 414.5 364.318 414.371C363.665 414.241 363.064 413.921 362.593 413.451C362.122 412.982 361.8 412.383 361.67 411.731C361.54 411.079 361.607 410.403 361.862 409.789C362.117 409.175 362.549 408.65 363.103 408.28C363.657 407.911 364.309 407.714 364.975 407.714C365.868 407.714 366.725 408.068 367.357 408.698C367.988 409.328 368.344 410.182 368.344 411.073V411.073Z" fill="#FA8E44"/>
<path d="M387.516 411.073C387.517 411.738 387.319 412.388 386.949 412.941C386.579 413.494 386.053 413.924 385.437 414.179C384.822 414.434 384.144 414.5 383.49 414.371C382.837 414.241 382.236 413.921 381.765 413.451C381.293 412.981 380.972 412.383 380.842 411.731C380.712 411.079 380.779 410.403 381.034 409.789C381.289 409.174 381.721 408.65 382.275 408.28C382.829 407.911 383.481 407.714 384.147 407.714C385.04 407.715 385.897 408.069 386.528 408.698C387.16 409.328 387.515 410.182 387.516 411.073V411.073Z" fill="#FA8E44"/>
<path d="M406.686 411.073C406.687 411.738 406.489 412.388 406.119 412.941C405.749 413.494 405.223 413.925 404.607 414.179C403.991 414.434 403.314 414.501 402.66 414.371C402.006 414.241 401.405 413.921 400.934 413.451C400.463 412.981 400.142 412.382 400.012 411.73C399.882 411.078 399.949 410.402 400.204 409.788C400.459 409.173 400.892 408.649 401.446 408.279C402 407.91 402.652 407.713 403.319 407.714C404.212 407.715 405.068 408.069 405.699 408.699C406.33 409.329 406.685 410.183 406.686 411.073Z" fill="#FA8E44"/>
<path d="M310.835 431.988C310.835 432.653 310.637 433.302 310.266 433.855C309.896 434.407 309.37 434.838 308.754 435.092C308.138 435.346 307.461 435.413 306.807 435.283C306.154 435.153 305.553 434.833 305.082 434.363C304.611 433.893 304.29 433.294 304.16 432.642C304.03 431.99 304.097 431.314 304.352 430.7C304.607 430.086 305.039 429.561 305.594 429.192C306.148 428.823 306.799 428.626 307.466 428.626C307.908 428.626 308.346 428.713 308.755 428.882C309.164 429.051 309.536 429.299 309.848 429.611C310.161 429.923 310.41 430.294 310.579 430.701C310.748 431.109 310.835 431.547 310.835 431.988V431.988Z" fill="#FA8E44"/>
<path d="M330.005 431.988C330.005 432.653 329.807 433.302 329.436 433.855C329.066 434.407 328.54 434.838 327.924 435.092C327.308 435.346 326.631 435.413 325.977 435.283C325.323 435.153 324.723 434.833 324.252 434.363C323.781 433.893 323.46 433.294 323.33 432.642C323.2 431.99 323.267 431.314 323.522 430.7C323.777 430.086 324.209 429.561 324.763 429.192C325.318 428.823 325.969 428.626 326.635 428.626C327.078 428.626 327.516 428.713 327.925 428.882C328.334 429.051 328.706 429.299 329.018 429.611C329.331 429.923 329.58 430.294 329.749 430.701C329.918 431.109 330.005 431.547 330.005 431.988V431.988Z" fill="#FA8E44"/>
<path d="M349.175 431.988C349.174 432.653 348.977 433.302 348.606 433.855C348.236 434.408 347.709 434.838 347.093 435.092C346.478 435.347 345.8 435.413 345.146 435.283C344.493 435.153 343.892 434.832 343.421 434.362C342.95 433.892 342.63 433.293 342.5 432.641C342.37 431.989 342.437 431.313 342.693 430.699C342.948 430.085 343.38 429.56 343.935 429.191C344.489 428.822 345.141 428.626 345.807 428.626C346.25 428.626 346.688 428.713 347.096 428.882C347.505 429.051 347.877 429.299 348.189 429.611C348.502 429.923 348.75 430.294 348.919 430.702C349.088 431.11 349.175 431.547 349.175 431.988V431.988Z" fill="#FA8E44"/>
<path d="M368.344 431.988C368.344 432.653 368.146 433.302 367.776 433.855C367.406 434.407 366.879 434.838 366.263 435.092C365.648 435.346 364.97 435.413 364.317 435.283C363.663 435.153 363.063 434.833 362.592 434.363C362.121 433.893 361.8 433.294 361.67 432.642C361.54 431.99 361.607 431.314 361.862 430.7C362.117 430.086 362.549 429.561 363.103 429.192C363.657 428.823 364.309 428.626 364.975 428.626C365.418 428.626 365.856 428.713 366.265 428.882C366.674 429.051 367.045 429.298 367.358 429.61C367.671 429.923 367.919 430.293 368.089 430.701C368.258 431.109 368.345 431.547 368.344 431.988V431.988Z" fill="#FA8E44"/>
<path d="M387.516 431.988C387.516 432.653 387.318 433.302 386.948 433.855C386.577 434.407 386.051 434.838 385.435 435.092C384.82 435.346 384.142 435.412 383.489 435.283C382.835 435.153 382.235 434.833 381.764 434.363C381.293 433.892 380.972 433.294 380.842 432.642C380.712 431.99 380.779 431.314 381.034 430.7C381.289 430.086 381.721 429.561 382.275 429.192C382.829 428.823 383.481 428.626 384.147 428.626C384.59 428.626 385.028 428.713 385.437 428.882C385.846 429.051 386.217 429.299 386.53 429.611C386.843 429.923 387.091 430.294 387.26 430.702C387.429 431.109 387.516 431.547 387.516 431.988V431.988Z" fill="#FA8E44"/>
<path d="M406.686 431.988C406.686 432.653 406.488 433.302 406.118 433.855C405.747 434.408 405.221 434.838 404.605 435.092C403.989 435.346 403.312 435.413 402.658 435.283C402.004 435.153 401.404 434.832 400.933 434.362C400.462 433.892 400.141 433.293 400.012 432.641C399.882 431.989 399.949 431.313 400.204 430.699C400.46 430.085 400.892 429.56 401.446 429.191C402.001 428.822 402.652 428.626 403.319 428.626C403.761 428.626 404.199 428.713 404.608 428.882C405.017 429.051 405.388 429.299 405.701 429.611C406.013 429.923 406.261 430.294 406.431 430.702C406.6 431.11 406.687 431.547 406.686 431.988Z" fill="#FA8E44"/>
<path d="M310.835 452.901C310.835 453.566 310.637 454.216 310.267 454.769C309.897 455.321 309.371 455.752 308.755 456.007C308.139 456.261 307.462 456.328 306.808 456.198C306.155 456.069 305.554 455.749 305.083 455.279C304.611 454.809 304.291 454.21 304.16 453.558C304.03 452.906 304.097 452.23 304.352 451.616C304.607 451.002 305.039 450.477 305.593 450.107C306.148 449.738 306.799 449.541 307.466 449.541C307.908 449.541 308.346 449.628 308.755 449.797C309.164 449.965 309.535 450.213 309.848 450.525C310.161 450.837 310.409 451.207 310.578 451.615C310.748 452.023 310.835 452.46 310.835 452.901Z" fill="#FA8E44"/>
<path d="M330.005 452.901C330.005 453.566 329.807 454.216 329.437 454.769C329.067 455.321 328.541 455.752 327.925 456.007C327.309 456.261 326.632 456.328 325.978 456.198C325.324 456.069 324.724 455.749 324.253 455.279C323.781 454.809 323.46 454.21 323.33 453.558C323.2 452.906 323.267 452.23 323.522 451.616C323.777 451.002 324.209 450.477 324.763 450.107C325.317 449.738 325.969 449.541 326.635 449.541C327.078 449.541 327.516 449.628 327.925 449.797C328.334 449.965 328.705 450.213 329.018 450.525C329.331 450.837 329.579 451.207 329.748 451.615C329.918 452.023 330.005 452.46 330.005 452.901V452.901Z" fill="#FA8E44"/>
<path d="M349.175 452.901C349.175 453.566 348.977 454.216 348.607 454.769C348.237 455.322 347.71 455.752 347.095 456.007C346.479 456.261 345.801 456.328 345.147 456.198C344.494 456.068 343.893 455.748 343.422 455.278C342.951 454.808 342.63 454.209 342.5 453.557C342.37 452.905 342.437 452.229 342.693 451.615C342.948 451 343.38 450.476 343.934 450.107C344.489 449.737 345.141 449.541 345.807 449.541C346.249 449.541 346.687 449.628 347.096 449.797C347.505 449.966 347.876 450.213 348.189 450.525C348.502 450.837 348.75 451.208 348.919 451.615C349.088 452.023 349.175 452.46 349.175 452.901V452.901Z" fill="#FA8E44"/>
<path d="M368.344 452.901C368.344 453.566 368.147 454.216 367.777 454.769C367.407 455.321 366.88 455.752 366.265 456.007C365.649 456.261 364.972 456.328 364.318 456.198C363.664 456.068 363.064 455.748 362.593 455.278C362.121 454.808 361.8 454.209 361.67 453.558C361.54 452.906 361.607 452.23 361.862 451.616C362.117 451.002 362.549 450.477 363.103 450.107C363.657 449.738 364.309 449.541 364.975 449.541C365.418 449.541 365.856 449.628 366.265 449.796C366.674 449.965 367.045 450.213 367.358 450.525C367.671 450.837 367.919 451.207 368.088 451.615C368.258 452.023 368.345 452.46 368.344 452.901Z" fill="#FA8E44"/>
<path d="M387.516 452.901C387.516 453.566 387.319 454.216 386.949 454.769C386.578 455.321 386.052 455.752 385.437 456.007C384.821 456.261 384.143 456.328 383.49 456.198C382.836 456.068 382.236 455.748 381.764 455.278C381.293 454.808 380.972 454.209 380.842 453.557C380.712 452.905 380.779 452.23 381.034 451.616C381.289 451.001 381.721 450.477 382.275 450.107C382.829 449.738 383.481 449.541 384.147 449.541C384.59 449.541 385.028 449.628 385.436 449.797C385.845 449.965 386.217 450.213 386.53 450.525C386.842 450.837 387.091 451.208 387.26 451.615C387.429 452.023 387.516 452.46 387.516 452.901V452.901Z" fill="#FA8E44"/>
<path d="M406.686 452.901C406.686 453.566 406.489 454.216 406.119 454.769C405.748 455.322 405.222 455.752 404.606 456.007C403.99 456.261 403.313 456.328 402.659 456.198C402.005 456.068 401.405 455.748 400.934 455.278C400.463 454.808 400.142 454.209 400.012 453.557C399.882 452.904 399.949 452.229 400.204 451.615C400.46 451 400.892 450.476 401.446 450.107C402.001 449.737 402.652 449.541 403.319 449.541C404.212 449.541 405.069 449.895 405.7 450.525C406.332 451.156 406.687 452.01 406.686 452.901Z" fill="#FA8E44"/>
<path d="M807.335 211.801C807.335 212.29 807.19 212.768 806.917 213.175C806.645 213.582 806.257 213.899 805.804 214.086C805.351 214.274 804.852 214.323 804.371 214.227C803.89 214.132 803.448 213.896 803.101 213.55C802.755 213.204 802.518 212.763 802.423 212.284C802.327 211.804 802.376 211.306 802.564 210.854C802.752 210.402 803.07 210.016 803.477 209.744C803.885 209.473 804.365 209.328 804.855 209.328C805.513 209.328 806.143 209.588 806.608 210.052C807.073 210.516 807.335 211.145 807.335 211.801V211.801Z" fill="#887BB1"/>
<path d="M821.442 211.801C821.442 212.29 821.296 212.768 821.024 213.175C820.752 213.582 820.364 213.899 819.911 214.086C819.458 214.273 818.959 214.322 818.478 214.227C817.997 214.131 817.556 213.896 817.209 213.55C816.862 213.204 816.626 212.763 816.53 212.283C816.434 211.804 816.484 211.306 816.671 210.854C816.859 210.402 817.177 210.016 817.585 209.744C817.992 209.473 818.472 209.328 818.962 209.328C819.62 209.328 820.25 209.588 820.715 210.052C821.18 210.516 821.442 211.145 821.442 211.801V211.801Z" fill="#887BB1"/>
<path d="M835.55 211.801C835.55 212.29 835.405 212.768 835.132 213.175C834.86 213.582 834.473 213.899 834.019 214.087C833.566 214.274 833.067 214.323 832.586 214.228C832.105 214.132 831.663 213.896 831.316 213.55C830.969 213.204 830.733 212.763 830.637 212.283C830.542 211.803 830.591 211.306 830.779 210.854C830.967 210.402 831.285 210.015 831.693 209.744C832.101 209.472 832.581 209.327 833.072 209.328C833.729 209.328 834.36 209.588 834.824 210.052C835.289 210.516 835.55 211.145 835.55 211.801V211.801Z" fill="#887BB1"/>
<path d="M849.659 211.801C849.659 212.29 849.514 212.768 849.241 213.175C848.969 213.582 848.581 213.899 848.128 214.086C847.675 214.274 847.176 214.323 846.695 214.227C846.214 214.132 845.772 213.896 845.425 213.55C845.079 213.204 844.842 212.763 844.747 212.283C844.651 211.803 844.7 211.306 844.888 210.854C845.076 210.402 845.394 210.016 845.802 209.744C846.21 209.472 846.69 209.327 847.18 209.328C847.506 209.328 847.828 209.392 848.129 209.516C848.43 209.64 848.703 209.822 848.933 210.052C849.163 210.282 849.346 210.554 849.47 210.854C849.595 211.154 849.659 211.476 849.659 211.801V211.801Z" fill="#887BB1"/>
<path d="M863.768 211.801C863.769 212.29 863.623 212.768 863.351 213.175C863.078 213.582 862.691 213.899 862.238 214.086C861.785 214.273 861.286 214.323 860.805 214.227C860.324 214.132 859.882 213.896 859.535 213.551C859.188 213.205 858.952 212.764 858.856 212.284C858.761 211.804 858.81 211.307 858.997 210.855C859.185 210.403 859.503 210.017 859.91 209.745C860.318 209.473 860.798 209.328 861.288 209.328C861.946 209.328 862.576 209.588 863.042 210.052C863.507 210.516 863.768 211.145 863.768 211.801Z" fill="#887BB1"/>
<path d="M877.875 211.801C877.875 212.29 877.73 212.769 877.457 213.176C877.185 213.583 876.797 213.9 876.344 214.087C875.891 214.274 875.392 214.324 874.911 214.228C874.429 214.133 873.987 213.897 873.64 213.551C873.293 213.205 873.057 212.764 872.962 212.284C872.866 211.804 872.915 211.306 873.103 210.854C873.291 210.402 873.609 210.016 874.017 209.744C874.426 209.472 874.905 209.327 875.396 209.328C876.053 209.328 876.684 209.589 877.148 210.053C877.613 210.516 877.874 211.145 877.875 211.801Z" fill="#887BB1"/>
<path d="M807.335 227.191C807.335 227.681 807.19 228.159 806.918 228.566C806.645 228.973 806.258 229.29 805.805 229.478C805.352 229.665 804.853 229.714 804.372 229.619C803.891 229.524 803.449 229.288 803.102 228.942C802.755 228.596 802.518 228.155 802.423 227.676C802.327 227.196 802.376 226.698 802.564 226.246C802.752 225.794 803.069 225.408 803.477 225.136C803.885 224.864 804.365 224.719 804.855 224.719C805.513 224.72 806.143 224.98 806.608 225.444C807.073 225.907 807.334 226.536 807.335 227.191V227.191Z" fill="#887BB1"/>
<path d="M821.442 227.191C821.442 227.681 821.297 228.159 821.025 228.566C820.752 228.973 820.365 229.29 819.912 229.477C819.459 229.665 818.96 229.714 818.479 229.618C817.998 229.523 817.556 229.288 817.209 228.942C816.862 228.596 816.626 228.155 816.53 227.675C816.434 227.196 816.483 226.698 816.671 226.246C816.859 225.794 817.177 225.408 817.585 225.136C817.992 224.864 818.472 224.719 818.962 224.719C819.62 224.72 820.25 224.98 820.715 225.444C821.18 225.907 821.441 226.536 821.442 227.191V227.191Z" fill="#887BB1"/>
<path d="M835.55 227.191C835.551 227.681 835.405 228.159 835.133 228.566C834.861 228.973 834.473 229.291 834.02 229.478C833.567 229.666 833.068 229.715 832.587 229.619C832.105 229.524 831.663 229.288 831.316 228.942C830.969 228.596 830.733 228.155 830.637 227.675C830.542 227.195 830.591 226.698 830.779 226.246C830.967 225.793 831.285 225.407 831.693 225.135C832.101 224.864 832.581 224.719 833.072 224.719C833.729 224.72 834.359 224.98 834.824 225.444C835.289 225.907 835.55 226.536 835.55 227.191V227.191Z" fill="#887BB1"/>
<path d="M849.659 227.191C849.659 227.681 849.514 228.159 849.242 228.566C848.969 228.973 848.582 229.29 848.129 229.478C847.676 229.665 847.177 229.714 846.696 229.619C846.215 229.523 845.773 229.288 845.426 228.942C845.079 228.596 844.843 228.155 844.747 227.675C844.651 227.195 844.7 226.698 844.888 226.246C845.076 225.794 845.394 225.408 845.802 225.136C846.21 224.864 846.689 224.719 847.18 224.719C847.837 224.719 848.468 224.98 848.933 225.443C849.398 225.907 849.659 226.536 849.659 227.191V227.191Z" fill="#887BB1"/>
<path d="M863.768 227.191C863.769 227.681 863.624 228.159 863.351 228.566C863.079 228.973 862.692 229.29 862.239 229.478C861.786 229.665 861.287 229.714 860.806 229.619C860.325 229.524 859.883 229.288 859.536 228.942C859.189 228.597 858.952 228.156 858.856 227.676C858.761 227.196 858.81 226.699 858.997 226.247C859.185 225.795 859.502 225.408 859.91 225.136C860.318 224.865 860.798 224.719 861.288 224.719C861.946 224.719 862.576 224.98 863.041 225.443C863.506 225.907 863.768 226.536 863.768 227.191V227.191Z" fill="#887BB1"/>
<path d="M877.875 227.191C877.875 227.681 877.73 228.159 877.458 228.566C877.185 228.974 876.798 229.291 876.345 229.478C875.891 229.666 875.393 229.715 874.911 229.62C874.43 229.524 873.988 229.289 873.641 228.943C873.294 228.597 873.057 228.156 872.962 227.676C872.866 227.196 872.915 226.698 873.103 226.246C873.291 225.794 873.609 225.407 874.017 225.136C874.425 224.864 874.905 224.719 875.396 224.719C876.053 224.72 876.683 224.981 877.148 225.444C877.613 225.907 877.874 226.536 877.875 227.191V227.191Z" fill="#887BB1"/>
<path d="M807.335 242.583C807.335 243.072 807.189 243.551 806.917 243.957C806.644 244.364 806.257 244.681 805.804 244.868C805.351 245.055 804.852 245.104 804.371 245.009C803.89 244.913 803.448 244.678 803.101 244.332C802.754 243.986 802.518 243.545 802.423 243.065C802.327 242.585 802.376 242.088 802.564 241.636C802.752 241.184 803.07 240.798 803.478 240.526C803.885 240.254 804.365 240.109 804.855 240.109C805.513 240.11 806.144 240.37 806.609 240.834C807.074 241.298 807.335 241.927 807.335 242.583V242.583Z" fill="#887BB1"/>
<path d="M821.442 242.584C821.442 243.073 821.296 243.551 821.024 243.958C820.751 244.364 820.364 244.681 819.911 244.868C819.458 245.055 818.959 245.104 818.478 245.009C817.997 244.913 817.555 244.678 817.209 244.332C816.862 243.986 816.626 243.545 816.53 243.065C816.434 242.586 816.484 242.088 816.671 241.636C816.859 241.185 817.177 240.798 817.585 240.527C817.992 240.255 818.472 240.11 818.962 240.11C819.62 240.11 820.251 240.371 820.716 240.835C821.181 241.298 821.442 241.928 821.442 242.584V242.584Z" fill="#887BB1"/>
<path d="M835.55 242.584C835.55 243.073 835.405 243.551 835.132 243.958C834.86 244.365 834.472 244.682 834.019 244.869C833.566 245.056 833.067 245.105 832.586 245.01C832.104 244.914 831.662 244.678 831.316 244.332C830.969 243.986 830.733 243.545 830.637 243.065C830.542 242.585 830.591 242.088 830.779 241.636C830.967 241.184 831.285 240.798 831.693 240.526C832.101 240.254 832.581 240.11 833.072 240.11C833.397 240.11 833.72 240.174 834.02 240.298C834.321 240.423 834.594 240.605 834.825 240.835C835.055 241.064 835.237 241.337 835.362 241.637C835.486 241.937 835.55 242.259 835.55 242.584V242.584Z" fill="#887BB1"/>
<path d="M849.659 242.583C849.659 243.072 849.514 243.551 849.241 243.957C848.968 244.364 848.581 244.681 848.128 244.868C847.675 245.055 847.176 245.104 846.695 245.009C846.214 244.913 845.772 244.678 845.425 244.332C845.078 243.985 844.842 243.545 844.747 243.065C844.651 242.585 844.7 242.088 844.888 241.636C845.076 241.184 845.394 240.797 845.802 240.526C846.21 240.254 846.69 240.109 847.18 240.109C847.506 240.109 847.828 240.173 848.129 240.298C848.43 240.422 848.703 240.604 848.933 240.834C849.164 241.064 849.346 241.336 849.471 241.636C849.595 241.937 849.659 242.258 849.659 242.583Z" fill="#887BB1"/>
<path d="M863.768 242.584C863.768 243.073 863.623 243.551 863.35 243.958C863.078 244.364 862.691 244.681 862.238 244.869C861.784 245.056 861.286 245.105 860.805 245.009C860.324 244.914 859.882 244.678 859.535 244.332C859.188 243.987 858.952 243.546 858.856 243.066C858.761 242.586 858.81 242.089 858.997 241.637C859.185 241.185 859.503 240.799 859.91 240.527C860.318 240.255 860.798 240.11 861.288 240.11C861.946 240.11 862.577 240.37 863.042 240.834C863.507 241.298 863.768 241.927 863.768 242.584V242.584Z" fill="#887BB1"/>
<path d="M877.875 242.583C877.875 243.072 877.729 243.551 877.457 243.958C877.184 244.365 876.797 244.682 876.344 244.869C875.89 245.056 875.391 245.105 874.91 245.01C874.429 244.914 873.987 244.678 873.64 244.332C873.293 243.986 873.057 243.545 872.962 243.065C872.866 242.585 872.915 242.088 873.103 241.636C873.291 241.184 873.609 240.797 874.017 240.526C874.426 240.254 874.905 240.109 875.396 240.109C876.053 240.11 876.684 240.371 877.149 240.834C877.613 241.298 877.875 241.927 877.875 242.583V242.583Z" fill="#887BB1"/>
<path d="M807.335 257.974C807.335 258.463 807.189 258.942 806.917 259.349C806.644 259.755 806.257 260.072 805.804 260.26C805.351 260.447 804.852 260.496 804.371 260.4C803.89 260.305 803.448 260.069 803.101 259.723C802.754 259.377 802.518 258.937 802.423 258.457C802.327 257.977 802.376 257.48 802.564 257.028C802.752 256.576 803.07 256.189 803.477 255.918C803.885 255.646 804.365 255.501 804.855 255.501C805.181 255.501 805.504 255.565 805.804 255.689C806.105 255.813 806.379 255.995 806.609 256.225C806.839 256.455 807.022 256.728 807.146 257.028C807.271 257.328 807.335 257.649 807.335 257.974V257.974Z" fill="#887BB1"/>
<path d="M821.442 257.975C821.442 258.464 821.296 258.942 821.024 259.349C820.751 259.756 820.364 260.073 819.911 260.26C819.458 260.447 818.959 260.496 818.478 260.4C817.997 260.305 817.555 260.069 817.209 259.724C816.862 259.378 816.626 258.937 816.53 258.457C816.434 257.977 816.484 257.48 816.671 257.028C816.859 256.576 817.177 256.19 817.585 255.918C817.992 255.646 818.472 255.501 818.962 255.501C819.288 255.501 819.611 255.565 819.911 255.689C820.212 255.814 820.486 255.996 820.716 256.226C820.946 256.455 821.129 256.728 821.253 257.028C821.378 257.328 821.442 257.65 821.442 257.975V257.975Z" fill="#887BB1"/>
<path d="M835.55 257.975C835.55 258.464 835.405 258.942 835.132 259.349C834.86 259.756 834.472 260.073 834.019 260.261C833.566 260.448 833.067 260.497 832.586 260.401C832.105 260.306 831.663 260.07 831.316 259.724C830.969 259.378 830.733 258.937 830.637 258.457C830.542 257.977 830.591 257.48 830.779 257.028C830.967 256.575 831.285 256.189 831.693 255.918C832.101 255.646 832.581 255.501 833.072 255.501C833.397 255.501 833.72 255.565 834.021 255.69C834.321 255.814 834.595 255.996 834.825 256.226C835.055 256.455 835.238 256.728 835.362 257.028C835.487 257.328 835.55 257.65 835.55 257.975V257.975Z" fill="#887BB1"/>
<path d="M849.659 257.974C849.659 258.463 849.514 258.942 849.241 259.349C848.969 259.755 848.581 260.072 848.128 260.26C847.675 260.447 847.176 260.496 846.695 260.4C846.214 260.305 845.772 260.069 845.425 259.723C845.079 259.377 844.842 258.936 844.747 258.457C844.651 257.977 844.7 257.479 844.888 257.027C845.076 256.575 845.394 256.189 845.802 255.917C846.21 255.646 846.69 255.501 847.18 255.501C847.506 255.501 847.828 255.565 848.129 255.689C848.43 255.813 848.703 255.995 848.934 256.225C849.164 256.455 849.346 256.727 849.471 257.028C849.595 257.328 849.659 257.649 849.659 257.974V257.974Z" fill="#887BB1"/>
<path d="M863.768 257.975C863.769 258.464 863.623 258.942 863.351 259.349C863.078 259.756 862.691 260.073 862.238 260.26C861.785 260.447 861.286 260.496 860.805 260.401C860.324 260.306 859.882 260.07 859.535 259.724C859.188 259.378 858.952 258.938 858.856 258.458C858.761 257.978 858.81 257.481 858.997 257.029C859.185 256.577 859.503 256.19 859.91 255.919C860.318 255.647 860.798 255.502 861.288 255.501C861.614 255.501 861.936 255.565 862.237 255.689C862.538 255.814 862.812 255.996 863.042 256.225C863.272 256.455 863.455 256.728 863.58 257.028C863.704 257.328 863.769 257.65 863.768 257.975V257.975Z" fill="#887BB1"/>
<path d="M877.875 257.974C877.875 258.464 877.73 258.942 877.457 259.349C877.185 259.756 876.797 260.073 876.344 260.261C875.891 260.448 875.392 260.497 874.91 260.401C874.429 260.306 873.987 260.07 873.64 259.724C873.293 259.378 873.057 258.937 872.962 258.457C872.866 257.977 872.915 257.479 873.103 257.027C873.291 256.575 873.609 256.189 874.017 255.917C874.425 255.646 874.905 255.501 875.396 255.501C876.053 255.501 876.684 255.762 877.149 256.226C877.614 256.689 877.875 257.318 877.875 257.974V257.974Z" fill="#887BB1"/>
<path d="M595.048 590.168C595.048 590.168 576.183 495.748 593.362 502.132C610.545 508.517 612.902 581.432 605.154 591.848" fill="#887BB1"/>
<path d="M595.048 590.168C595.048 590.168 576.183 495.748 593.362 502.132C610.545 508.517 612.902 581.432 605.154 591.848" stroke="#887BB1" stroke-width="1.19242" stroke-miterlimit="10"/>
<path d="M593.218 593.644C593.218 593.644 589.859 555.089 571.372 557.099C552.884 559.113 579.775 590.625 584.48 593.644" fill="#FA8E44"/>
<path d="M593.218 593.644C593.218 593.644 589.859 555.089 571.372 557.099C552.884 559.113 579.775 590.625 584.48 593.644" stroke="#887BB1" stroke-width="1.19242" stroke-linecap="round" stroke-linejoin="round"/>
<path d="M571.705 541.343C571.705 541.343 566.664 556.429 580.109 553.748C593.555 551.065 589.647 550.561 589.647 550.561" fill="#FA8E44"/>
<path d="M571.705 541.343C571.705 541.343 566.664 556.429 580.109 553.748C593.555 551.065 589.647 550.561 589.647 550.561" stroke="#887BB1" stroke-width="1.19242" stroke-miterlimit="10"/>
<path d="M597.252 593.307C597.252 593.307 592.881 535.644 586.496 533.297C580.109 530.951 569.354 535.98 571.705 541.343C574.06 546.707 589.858 593.644 589.858 593.644" fill="#E8AA7E"/>
<path d="M597.252 593.307C597.252 593.307 592.881 535.644 586.496 533.297C580.109 530.951 569.354 535.98 571.705 541.343C574.06 546.707 589.858 593.644 589.858 593.644" stroke="#887BB1" stroke-width="1.19242" stroke-linecap="round" stroke-linejoin="round"/>
<path d="M635.471 530.022C635.471 530.022 639.851 548.166 631.43 554.215C623.008 560.261 616.608 549.175 616.608 549.175L615.26 529.35" fill="#FA8E44"/>
<path d="M635.471 530.022C635.471 530.022 639.851 548.166 631.43 554.215C623.008 560.261 616.608 549.175 616.608 549.175L615.26 529.35" stroke="#887BB1" stroke-width="1.19242" stroke-miterlimit="10"/>
<path d="M600.773 592.183C600.773 592.183 605.491 515.573 621.998 520.276C638.505 524.982 635.472 534.053 635.472 534.053C635.472 534.053 631.431 530.359 629.073 535.061C626.714 539.767 614.585 593.529 614.585 593.529" fill="#E8AA7E"/>
<path d="M600.773 592.183C600.773 592.183 605.491 515.573 621.998 520.276C638.505 524.982 635.472 534.053 635.472 534.053C635.472 534.053 631.431 530.359 629.073 535.061C626.714 539.767 614.585 593.529 614.585 593.529" stroke="#887BB1" stroke-width="1.19242" stroke-linecap="round" stroke-linejoin="round"/>
<path d="M608.207 592.332C608.207 592.332 614.951 554.222 633.189 557.848C651.427 561.472 621.865 590.505 616.911 593.099" fill="#FA8E44"/>
<path d="M608.207 592.332C608.207 592.332 614.951 554.222 633.189 557.848C651.427 561.472 621.865 590.505 616.911 593.099" stroke="#887BB1" stroke-width="1.19242" stroke-miterlimit="10"/>
<path d="M593.025 506.836C593.025 506.836 601.878 561.924 598.844 592.165" stroke="#887BB1" stroke-width="0.794946" stroke-linecap="round" stroke-linejoin="round"/>
<path d="M580.225 536.407C580.225 536.407 591.677 576.391 592.689 590.168" stroke="#887BB1" stroke-width="0.794946" stroke-linecap="round" stroke-linejoin="round"/>
<path d="M571.129 562.279C571.129 562.279 584.603 582.44 586.625 591.175" stroke="#887BB1" stroke-width="0.794946" stroke-linecap="round" stroke-linejoin="round"/>
<path d="M622.67 525.654C622.67 525.654 608.857 566.981 605.152 589.497" stroke="#887BB1" stroke-width="0.794946" stroke-linecap="round" stroke-linejoin="round"/>
<path d="M611.715 591.94L611.391 591.758C619.057 578.127 629.827 563.988 629.934 563.847L630.229 564.071C630.122 564.212 619.369 578.333 611.715 591.94Z" stroke="#887BB1" stroke-width="0.794946" stroke-linecap="round" stroke-linejoin="round"/>
<path d="M630.084 590.507H574.385V602.937H630.084V590.507Z" fill="#887BB1" stroke="#887BB1" stroke-width="1.19242" stroke-miterlimit="10"/>
<path d="M1070.59 409.857V402.507H1064.69C1064.21 400.094 1063.26 397.799 1061.89 395.755L1066.06 391.595L1060.85 386.396L1056.68 390.556C1054.63 389.188 1052.33 388.237 1049.91 387.758V381.877H1042.54V387.758C1040.12 388.237 1037.82 389.188 1035.77 390.556L1031.6 386.396L1026.38 391.595L1030.55 395.755C1029.18 397.8 1028.23 400.094 1027.75 402.507H1021.85V409.857H1027.75C1028.23 412.27 1029.18 414.564 1030.55 416.609L1026.38 420.77L1031.6 425.968L1035.77 421.808C1037.82 423.177 1040.12 424.128 1042.54 424.607V430.487H1049.91V424.607C1052.33 424.127 1054.63 423.176 1056.68 421.808L1060.85 425.968L1066.06 420.77L1061.89 416.609C1063.26 414.565 1064.21 412.27 1064.69 409.857H1070.59ZM1046.22 416.599C1044.16 416.6 1042.14 415.989 1040.42 414.844C1038.7 413.7 1037.36 412.073 1036.57 410.17C1035.78 408.266 1035.57 406.172 1035.98 404.151C1036.38 402.13 1037.37 400.274 1038.83 398.817C1040.29 397.36 1042.16 396.367 1044.18 395.965C1046.21 395.563 1048.31 395.77 1050.22 396.558C1052.12 397.346 1053.76 398.681 1054.9 400.395C1056.05 402.108 1056.66 404.122 1056.66 406.182C1056.66 408.945 1055.56 411.594 1053.61 413.547C1051.65 415.501 1048.99 416.599 1046.22 416.599V416.599Z" fill="#FA8E44"/>
<path d="M833.651 216.557V211.403H829.515C829.179 209.711 828.51 208.102 827.548 206.668L830.473 203.751L826.819 200.106L823.894 203.023C822.457 202.063 820.844 201.396 819.147 201.061V196.937H813.98V201.061C812.284 201.396 810.67 202.063 809.232 203.023L806.308 200.106L802.654 203.751L805.58 206.668C804.617 208.102 803.948 209.711 803.612 211.403H799.477V216.557H803.612C803.948 218.249 804.617 219.858 805.58 221.291L802.654 224.208L806.308 227.854L809.232 224.937C810.67 225.896 812.284 226.563 813.98 226.899V231.023H819.147V226.899C820.844 226.563 822.457 225.896 823.894 224.937L826.819 227.854L830.473 224.208L827.548 221.291C828.51 219.858 829.179 218.249 829.515 216.557H833.651ZM816.564 221.284C815.116 221.285 813.7 220.856 812.496 220.054C811.291 219.251 810.352 218.111 809.798 216.776C809.244 215.441 809.098 213.972 809.381 212.555C809.663 211.138 810.361 209.837 811.385 208.815C812.409 207.794 813.714 207.098 815.135 206.816C816.555 206.534 818.028 206.679 819.366 207.231C820.704 207.784 821.848 208.72 822.653 209.922C823.458 211.123 823.887 212.535 823.887 213.98C823.887 215.917 823.116 217.775 821.742 219.144C820.369 220.514 818.507 221.284 816.564 221.284V221.284Z" fill="#887BB1"/>
<path d="M835.239 552.248C835.24 553.97 834.9 555.676 834.239 557.268C833.578 558.859 832.609 560.305 831.388 561.523C830.167 562.741 828.717 563.707 827.121 564.366C825.525 565.025 823.815 565.364 822.088 565.363H727.4C725.673 565.364 723.963 565.025 722.368 564.366C720.772 563.707 719.322 562.741 718.101 561.523C716.88 560.305 715.912 558.859 715.251 557.267C714.591 555.676 714.251 553.97 714.252 552.248V552.248C714.251 550.525 714.591 548.819 715.251 547.228C715.911 545.636 716.88 544.19 718.101 542.971C719.322 541.753 720.772 540.787 722.367 540.128C723.963 539.469 725.673 539.13 727.4 539.13H822.088C823.815 539.129 825.526 539.468 827.121 540.128C828.717 540.787 830.167 541.753 831.389 542.971C832.61 544.189 833.579 545.635 834.239 547.227C834.9 548.819 835.24 550.525 835.239 552.248Z" fill="white" stroke="#887BB1" stroke-width="1.19242" stroke-linecap="round" stroke-linejoin="round"/>
<path d="M835.239 476.693C835.24 478.416 834.9 480.122 834.239 481.714C833.578 483.305 832.61 484.752 831.388 485.97C830.167 487.188 828.717 488.154 827.121 488.813C825.525 489.472 823.815 489.811 822.088 489.81H727.4C725.673 489.811 723.963 489.472 722.368 488.813C720.772 488.154 719.322 487.187 718.101 485.969C716.88 484.751 715.912 483.305 715.251 481.713C714.591 480.122 714.251 478.416 714.252 476.693V476.693C714.251 474.971 714.591 473.265 715.251 471.674C715.912 470.082 716.88 468.636 718.101 467.418C719.322 466.2 720.772 465.234 722.368 464.575C723.963 463.916 725.673 463.577 727.4 463.578H822.088C823.815 463.577 825.525 463.916 827.121 464.575C828.717 465.234 830.167 466.2 831.388 467.418C832.61 468.636 833.578 470.082 834.239 471.673C834.9 473.265 835.24 474.971 835.239 476.693V476.693Z" fill="white" stroke="#887BB1" stroke-width="1.19242" stroke-linecap="round" stroke-linejoin="round"/>
<path d="M777.993 480.723C777.994 481.55 777.831 482.369 777.514 483.133C777.196 483.898 776.731 484.592 776.145 485.177C775.559 485.762 774.863 486.226 774.097 486.542C773.33 486.859 772.509 487.022 771.68 487.021H726.221C725.392 487.022 724.571 486.859 723.805 486.542C723.038 486.226 722.342 485.762 721.756 485.177C721.17 484.592 720.705 483.898 720.388 483.133C720.071 482.369 719.908 481.55 719.908 480.723V480.723C719.908 479.896 720.071 479.077 720.388 478.313C720.705 477.549 721.17 476.854 721.756 476.27C722.343 475.685 723.039 475.221 723.805 474.905C724.571 474.589 725.392 474.426 726.221 474.426H771.68C772.509 474.426 773.33 474.589 774.096 474.905C774.862 475.221 775.558 475.685 776.145 476.27C776.731 476.855 777.196 477.549 777.513 478.313C777.83 479.077 777.994 479.896 777.993 480.723V480.723Z" fill="#FA8E44"/>
<path d="M780.168 555.431C780.168 556.258 780.005 557.077 779.688 557.841C779.371 558.606 778.906 559.3 778.319 559.885C777.733 560.47 777.037 560.934 776.271 561.25C775.505 561.566 774.684 561.729 773.854 561.729H728.395C727.566 561.729 726.745 561.567 725.979 561.25C725.212 560.934 724.516 560.47 723.93 559.885C723.344 559.3 722.879 558.606 722.562 557.841C722.245 557.077 722.082 556.258 722.082 555.431V555.431C722.082 554.604 722.245 553.785 722.562 553.021C722.879 552.257 723.344 551.562 723.93 550.978C724.516 550.393 725.213 549.929 725.979 549.613C726.745 549.296 727.566 549.134 728.395 549.134H773.854C774.684 549.134 775.505 549.297 776.271 549.613C777.037 549.929 777.733 550.393 778.319 550.978C778.906 551.563 779.371 552.257 779.688 553.021C780.005 553.785 780.168 554.604 780.168 555.431Z" fill="#FA8E44"/>
<path d="M1105.81 506.798C1105.81 506.798 1236.42 516.374 1305.26 474.541" stroke="#887BB1" stroke-width="1.98736" stroke-linecap="round" stroke-linejoin="round"/>
<path d="M1035.02 562.8L1042.48 578.609L1027.48 582.872L1020.56 566.83" fill="white"/>
<path d="M1035.02 562.8L1042.48 578.609L1027.48 582.872L1020.56 566.83" stroke="#887BB1" stroke-width="1.19242" stroke-linecap="round" stroke-linejoin="round"/>
<path d="M941.312 572.798L945.508 589.459L930.745 593.256L930.123 574.115" fill="white"/>
<path d="M941.312 572.798L945.508 589.459L930.745 593.256L930.123 574.115" stroke="#887BB1" stroke-width="1.19242" stroke-linecap="round" stroke-linejoin="round"/>
<path d="M956.753 374.75C956.753 374.75 976.903 386.851 982.58 403.834C988.255 420.818 994.216 495.264 1003.58 507.684C1012.95 520.104 1043.48 560.708 1043.48 560.708L1020.1 574.115C1020.1 574.115 985.133 526.471 976.903 512.672C968.673 498.874 955.051 436.599 955.051 436.599C955.051 436.599 937.456 484.783 936.605 504.598C935.753 524.413 949.936 577.835 949.936 577.835L926.393 578.531C926.393 578.531 911.63 528.304 910.21 502.333C908.792 476.364 926.954 399.939 926.954 399.939" fill="#222222"/>
<path d="M880.656 418.256C884.841 405.114 886.863 389.781 883.11 373.759C872.467 328.327 859.271 349.981 859.271 362.295C859.271 362.295 863.645 388.01 861.293 413.887C864.797 416.385 870.831 418.902 880.656 418.256Z" fill="#FA8E44" stroke="#887BB1" stroke-width="1.19242" stroke-linecap="round" stroke-linejoin="round"/>
<path d="M861.292 413.887C859.832 429.939 855.788 446.053 846.498 456.13L857.992 459.102C857.992 459.102 872.973 442.375 880.655 418.256C870.83 418.902 864.796 416.385 861.292 413.887Z" fill="white" stroke="#887BB1" stroke-width="1.19242" stroke-linecap="round" stroke-linejoin="round"/>
<path d="M856.715 361.869C856.715 361.869 860.972 337.242 886.941 340.639C912.908 344.037 956.755 374.608 956.755 374.608C956.755 374.608 941.43 406.028 928.659 406.453C915.888 406.877 856.715 381.826 856.715 363.568" fill="#222222"/>
<path d="M848.201 457.191L843.304 465.897L833.088 474.389L855.863 475.875L853.733 469.081L856.289 458.891" fill="#FA8E44"/>
<path d="M848.201 457.191L843.304 465.897L833.088 474.389L855.863 475.875L853.733 469.081L856.289 458.891" stroke="#887BB1" stroke-width="1.19242" stroke-linecap="round" stroke-linejoin="round"/>
<path d="M885.874 385.115C885.874 385.115 875.02 367.248 879.278 356.774C883.533 346.302 887.597 345.611 887.597 345.611C887.597 345.611 868.847 337.668 865.015 353.589C861.183 369.512 874.913 380.34 874.913 380.34L885.874 385.115Z" fill="#FA8E44"/>
<path d="M890.558 381.048C890.558 381.048 874.594 347.151 900.845 349.698C922.744 351.823 935.055 374.569 931.366 380.372C927.675 386.175 890.558 381.048 890.558 381.048Z" fill="#FA8E44"/>
<path d="M1029.6 595.045L1030.94 592.676L1047.33 588.871L1049.49 593.174C1049.49 593.174 1002.27 606.439 1000.85 603.013C1000.4 601.919 1000.02 601.296 1000.02 600.708L1029.6 595.045Z" fill="#FA8E44" stroke="#887BB1" stroke-width="1.19242" stroke-linecap="round" stroke-linejoin="round"/>
<path d="M1029.6 595.045L1000.02 600.708C1000 599.458 997.701 598.483 1003.91 593.375C1007.28 590.603 1015.12 589.203 1017.58 586.635C1020.16 583.918 1022.17 580.729 1023.53 577.246C1023.53 577.246 1031.17 583.963 1034.5 581.916C1037.83 579.869 1041.81 577.86 1041.81 577.86L1047.33 588.871L1030.94 592.676L1029.6 595.045Z" fill="#FA8E44" stroke="#887BB1" stroke-width="1.19242" stroke-linecap="round" stroke-linejoin="round"/>
<path d="M931.272 601.203L933.034 599.127L949.856 598.472L951.163 603.104C951.163 603.104 902.284 607.257 901.534 603.624C901.296 602.466 901.045 601.782 901.149 601.204L931.272 601.203Z" fill="#FA8E44" stroke="#887BB1" stroke-width="1.19242" stroke-linecap="round" stroke-linejoin="round"/>
<path d="M931.272 601.202L901.149 601.204C901.372 599.973 899.299 598.583 906.363 594.733C910.193 592.647 918.16 592.744 921.064 590.686C924.102 588.5 926.685 585.748 928.672 582.581C928.672 582.581 934.907 590.614 938.565 589.23C942.224 587.846 946.516 586.619 946.516 586.619L949.856 598.471L933.033 599.127L931.272 601.202Z" fill="#FA8E44" stroke="#887BB1" stroke-width="1.19242" stroke-linecap="round" stroke-linejoin="round"/>
<path d="M863.312 349.132L873.637 349.556C873.637 349.556 877.28 354.071 876.509 358.951C875.764 363.674 872.732 366.222 869.485 366.593C866.24 366.965 864.165 359.852 864.165 359.852" fill="white"/>
<path d="M863.312 349.132L873.637 349.556C873.637 349.556 877.28 354.071 876.509 358.951C875.764 363.674 872.732 366.222 869.485 366.593C866.24 366.965 864.165 359.852 864.165 359.852" stroke="#887BB1" stroke-width="1.19242" stroke-linecap="round" stroke-linejoin="round"/>
<path d="M844.371 359.605C844.371 359.605 857.426 385.648 863.101 378.288C868.778 370.928 866.932 349.981 866.932 349.981C866.932 349.981 855.723 348.283 844.371 359.605Z" fill="white" stroke="#887BB1" stroke-width="1.19242" stroke-linecap="round" stroke-linejoin="round"/>
<path d="M858.701 357.623L863.101 359.959C863.101 359.959 862.107 357.482 863.597 356.845C865.088 356.208 868.137 358.049 867.357 361.163L870.337 356.492L866.861 347.646" fill="#222222"/>
<path d="M867.357 347.717C867.357 347.717 866.649 334.908 854.09 336.607C846.777 337.594 831.883 350.266 842.951 361.304C842.951 361.304 860.83 364.983 867.357 347.717Z" fill="#222222"/>
<path d="M920.145 404.895C920.145 404.895 957.891 395.837 956.046 374.75L964.134 380.553C964.134 380.553 961.51 392.485 953.084 399.049C945.333 405.087 934.786 408.349 925.962 407.868L920.145 404.895Z" fill="white" stroke="#887BB1" stroke-width="1.19242" stroke-linecap="round" stroke-linejoin="round"/>
<path d="M856.354 406.796L854.117 418.047L884.252 424.006L886.489 412.755L856.354 406.796Z" fill="#FA8E44" stroke="#887BB1" stroke-width="1.19242" stroke-linecap="round" stroke-linejoin="round"/>
<path d="M812.277 417.837C806.648 417.795 801.059 418.781 795.787 420.746C795.715 420.745 795.643 420.736 795.569 420.736C792.35 420.736 789.266 422.732 786.415 426.379C783.864 428.76 782.18 431.516 781.635 434.482C774.215 450.473 769.279 478.854 769.279 511.207C769.279 561.171 781.051 601.675 795.569 601.675C796.935 601.675 807.751 602.291 812.277 602.291C829.309 602.291 843.12 593.898 843.12 583.55V436.581C843.12 426.23 829.309 417.837 812.277 417.837Z" fill="white" stroke="#887BB1" stroke-width="1.19242" stroke-linecap="round" stroke-linejoin="round"/>
<path d="M856.919 511.207C856.919 561.171 845.148 601.675 830.628 601.675C816.107 601.675 804.336 561.171 804.336 511.207C804.336 461.241 816.107 420.736 830.628 420.736C845.148 420.736 856.919 461.241 856.919 511.207Z" fill="#FA8E44" stroke="#887BB1" stroke-width="1.19242" stroke-miterlimit="10"/>
<path d="M974.467 510.355C974.467 505.067 976.574 499.996 980.323 496.257C984.072 492.518 989.157 490.418 994.458 490.418H1089.14C1094.45 490.418 1099.53 492.518 1103.28 496.257C1107.03 499.996 1109.14 505.067 1109.14 510.355C1109.14 515.643 1107.03 520.715 1103.28 524.454C1099.53 528.193 1094.45 530.293 1089.14 530.293H994.458C989.157 530.293 984.072 528.193 980.323 524.454C976.574 520.715 974.467 515.643 974.467 510.355V510.355Z" fill="white" stroke="#887BB1" stroke-width="1.19242" stroke-linecap="round" stroke-linejoin="round"/>
<path d="M1097.05 495.09C1096.73 499.424 1094.78 503.477 1091.59 506.436C1088.4 509.395 1084.2 511.04 1079.85 511.042H998.046C994.591 511.047 991.215 510.013 988.359 508.076C988.326 508.497 988.293 508.918 988.293 509.349C988.293 513.917 990.113 518.299 993.352 521.529C996.591 524.759 1000.98 526.574 1005.56 526.574H1087.36C1091.06 526.574 1094.66 525.393 1097.63 523.202C1100.6 521.011 1102.79 517.928 1103.88 514.404C1104.96 510.88 1104.88 507.102 1103.65 503.626C1102.43 500.15 1100.11 497.158 1097.05 495.09V495.09Z" fill="#FA8E44"/>
<path d="M932.383 503.011C932.382 498.118 933.348 493.274 935.225 488.754C937.102 484.234 939.853 480.127 943.321 476.667C946.79 473.208 950.907 470.463 955.439 468.591C959.971 466.719 964.828 465.756 969.733 465.756V465.756C974.638 465.755 979.495 466.719 984.027 468.591C988.558 470.463 992.676 473.207 996.144 476.667C999.612 480.126 1002.36 484.234 1004.24 488.754C1006.12 493.274 1007.08 498.118 1007.08 503.011V517.699C1007.08 522.592 1006.12 527.436 1004.24 531.957C1002.36 536.477 999.613 540.584 996.145 544.044C992.676 547.503 988.559 550.248 984.027 552.12C979.495 553.992 974.638 554.955 969.733 554.955V554.955C964.828 554.955 959.971 553.992 955.439 552.12C950.907 550.247 946.789 547.503 943.321 544.044C939.852 540.584 937.101 536.477 935.225 531.957C933.348 527.437 932.382 522.592 932.383 517.699V503.011Z" fill="white" stroke="#887BB1" stroke-width="1.19242" stroke-linecap="round" stroke-linejoin="round"/>
<path d="M985.274 532.014C980.846 532.014 976.461 531.145 972.37 529.455C968.28 527.765 964.563 525.288 961.432 522.165C958.301 519.042 955.818 515.335 954.124 511.255C952.429 507.174 951.558 502.801 951.559 498.385V485.125C951.553 480.648 952.447 476.214 954.188 472.087C949.043 475.031 944.768 479.277 941.796 484.397C938.824 489.517 937.26 495.329 937.262 501.245V514.505C937.263 522.27 939.957 529.795 944.888 535.803C949.819 541.812 956.682 545.934 964.313 547.47C971.944 549.005 979.873 547.86 986.754 544.228C993.635 540.597 999.044 534.702 1002.06 527.545C996.957 530.479 991.166 532.021 985.274 532.014V532.014Z" fill="#FA8E44"/>
<path d="M927.124 440.047H852.427C846.48 440.043 840.601 441.301 835.179 443.736C821.035 474.143 814.509 542.031 835.183 576.974C840.604 579.409 846.482 580.666 852.427 580.661H927.124C932.651 580.662 938.123 579.576 943.229 577.467C948.335 575.358 952.975 572.267 956.882 568.369C960.79 564.472 963.89 559.845 966.005 554.752C968.12 549.66 969.209 544.201 969.209 538.689V482.021C969.209 476.508 968.12 471.05 966.005 465.958C963.89 460.865 960.79 456.238 956.882 452.34C952.975 448.443 948.335 445.351 943.229 443.242C938.123 441.133 932.651 440.047 927.124 440.047V440.047Z" fill="white" stroke="#887BB1" stroke-width="1.19242" stroke-linecap="round" stroke-linejoin="round"/>
<path d="M953.766 554.315H886.639C881.297 554.319 876.015 553.19 871.143 551.003C855.717 524.928 857.151 478.461 865.354 447.793H854.938C849.594 447.789 844.311 448.919 839.439 451.108C826.728 478.433 820.863 539.441 839.442 570.844C844.314 573.03 849.596 574.159 854.938 574.155H922.066C928.904 574.158 935.616 572.31 941.485 568.809C947.354 565.308 952.161 560.285 955.394 554.275C954.853 554.298 954.312 554.315 953.766 554.315Z" fill="#FA8E44"/>
<path d="M911.056 413.571C912.704 403.79 913.355 381.933 910.17 371.211C901.432 341.799 888.508 359.984 888.508 370.848C888.508 370.848 889.945 391.508 888.985 414.413C896.35 415.002 903.758 414.719 911.056 413.571V413.571Z" fill="#FA8E44" stroke="#887BB1" stroke-width="1.19242" stroke-linecap="round" stroke-linejoin="round"/>
<path d="M888.984 414.413C888.208 432.933 885.806 454.935 874.957 466.704L883.193 469.029C883.193 469.029 905.822 444.601 911.055 413.571C903.757 414.719 896.348 415.002 888.984 414.413V414.413Z" fill="white" stroke="#887BB1" stroke-width="1.19242" stroke-linecap="round" stroke-linejoin="round"/>
<path d="M914.894 412.302H883.814V425.321H914.894V412.302Z" fill="#FA8E44" stroke="#887BB1" stroke-width="1.19242" stroke-linecap="round" stroke-linejoin="round"/>
<path d="M884.832 466.379L875.9 462.917C875.433 462.992 874.978 463.127 874.546 463.319C873.879 463.623 874.12 465.79 874.12 465.79C874.12 465.79 868.738 469.574 866.195 473.644C863.652 477.714 858.413 480.598 860.485 481.509C862.561 482.422 864.208 478.699 865.061 479.568C865.489 480.003 864.248 483.517 862.28 486.637C860.313 489.757 857.621 492.478 859.209 492.805C862.385 493.463 868.4 483.347 868.4 483.347C868.4 483.347 867.194 486.907 865.691 490.53C864.079 494.42 862.222 498.419 864.081 499.147C865.687 499.776 867.127 496.184 869.021 492.792C870.29 490.57 871.686 488.423 873.202 486.361C873.202 486.361 869.163 498.457 870.955 497.764C872.747 497.071 876.103 486.224 876.853 486.534C877.603 486.844 875.527 494.549 876.838 494.384C878.15 494.219 882.184 481.173 882.184 481.173C882.184 481.173 885.615 473.956 884.174 469.369C884.174 469.369 886.366 467.63 884.832 466.379Z" fill="#222222"/>
<path d="M983.318 393.743C983.648 394.257 983.874 394.832 983.981 395.433C984.089 396.034 984.077 396.65 983.946 397.247C983.815 397.843 983.567 398.408 983.217 398.909C982.867 399.41 982.421 399.837 981.906 400.167L971.305 406.936C970.79 407.265 970.214 407.49 969.611 407.597C969.009 407.705 968.391 407.693 967.793 407.562C967.195 407.431 966.628 407.184 966.126 406.835C965.624 406.485 965.195 406.041 964.865 405.527L951.041 383.989C950.711 383.475 950.485 382.901 950.377 382.299C950.27 381.698 950.282 381.082 950.413 380.486C950.544 379.889 950.792 379.324 951.142 378.823C951.492 378.322 951.937 377.895 952.453 377.566L963.053 370.797C963.569 370.467 964.145 370.242 964.747 370.135C965.35 370.028 965.968 370.04 966.566 370.17C967.164 370.301 967.73 370.548 968.233 370.898C968.735 371.247 969.163 371.691 969.493 372.205L983.318 393.743Z" fill="#FA8E44" stroke="#887BB1" stroke-width="1.19242" stroke-linecap="round" stroke-linejoin="round"/>
<path d="M956.371 391.214C956.371 391.214 969.733 390.687 975.382 380.73Z" fill="#FA8E44"/>
<path d="M956.371 391.214C956.371 391.214 969.733 390.687 975.382 380.73" stroke="#887BB1" stroke-width="1.19242" stroke-linecap="round" stroke-linejoin="round"/>
<path d="M950.763 310.51C950.763 312.441 950.381 314.354 949.64 316.138C948.899 317.922 947.813 319.543 946.444 320.909C945.075 322.275 943.45 323.358 941.661 324.097C939.872 324.836 937.954 325.216 936.018 325.216H886.869C882.959 325.216 879.209 323.667 876.443 320.909C873.678 318.151 872.125 314.41 872.125 310.51V310.51C872.125 306.61 873.678 302.869 876.443 300.111C879.209 297.353 882.959 295.804 886.869 295.804H936.018C937.954 295.804 939.872 296.184 941.661 296.923C943.449 297.662 945.075 298.745 946.444 300.111C947.813 301.477 948.899 303.098 949.64 304.882C950.381 306.666 950.763 308.579 950.763 310.51V310.51Z" fill="#222222"/>
<path d="M889.601 310.51H872.125V325.156H889.601V310.51Z" fill="#222222"/>
<path d="M394.201 284.456H322.715C310.871 284.456 301.27 295.369 301.27 308.831C301.27 322.292 310.871 333.205 322.715 333.205H394.201C394.839 333.205 395.47 333.167 396.095 333.105H415.647V308.831C415.647 295.369 406.045 284.456 394.201 284.456Z" fill="#887BB1"/>
<path d="M899.43 310.026C899.43 310.457 899.301 310.878 899.061 311.236C898.821 311.594 898.48 311.874 898.081 312.039C897.682 312.203 897.243 312.247 896.819 312.163C896.395 312.078 896.006 311.871 895.7 311.566C895.395 311.261 895.187 310.873 895.102 310.45C895.018 310.028 895.062 309.59 895.227 309.192C895.392 308.793 895.672 308.453 896.032 308.214C896.391 307.974 896.813 307.847 897.245 307.847C897.532 307.847 897.816 307.903 898.081 308.013C898.346 308.122 898.587 308.282 898.79 308.485C898.993 308.687 899.154 308.927 899.263 309.192C899.373 309.456 899.43 309.739 899.43 310.026V310.026Z" fill="white"/>
<path d="M913.629 310.026C913.629 310.456 913.501 310.878 913.261 311.236C913.021 311.594 912.679 311.874 912.28 312.039C911.881 312.203 911.442 312.247 911.018 312.162C910.594 312.078 910.205 311.871 909.9 311.566C909.594 311.261 909.386 310.873 909.302 310.45C909.217 310.028 909.261 309.59 909.426 309.192C909.592 308.793 909.872 308.453 910.231 308.214C910.59 307.974 911.012 307.847 911.445 307.847C911.731 307.847 912.015 307.903 912.28 308.013C912.546 308.122 912.786 308.283 912.989 308.485C913.192 308.687 913.353 308.927 913.463 309.192C913.572 309.456 913.629 309.739 913.629 310.026Z" fill="white"/>
<path d="M927.826 310.026C927.826 310.456 927.697 310.878 927.457 311.236C927.217 311.594 926.876 311.873 926.477 312.038C926.078 312.203 925.639 312.246 925.215 312.162C924.791 312.078 924.402 311.87 924.097 311.566C923.791 311.261 923.583 310.873 923.499 310.45C923.415 310.027 923.458 309.589 923.624 309.191C923.789 308.793 924.069 308.453 924.428 308.214C924.787 307.974 925.21 307.847 925.642 307.847C925.929 307.847 926.213 307.903 926.478 308.013C926.743 308.122 926.983 308.283 927.186 308.485C927.389 308.687 927.55 308.927 927.66 309.192C927.769 309.456 927.826 309.739 927.826 310.026V310.026Z" fill="white"/>
<path d="M338.968 313.356H336.419L335.358 319.832H332.206L333.267 313.356H329.752V310.466H333.742L334.439 306.296H330.939V303.406H334.914L336.007 296.835H339.142L338.065 303.406H340.615L341.708 296.835H344.859L343.767 303.406H347.425V306.296H343.291L342.595 310.466H346.221V313.356H342.12L341.058 319.832H337.907L338.968 313.356ZM336.893 310.466H339.443L340.14 306.296H337.59L336.893 310.466Z" fill="white"/>
<path d="M360.812 313.356H358.263L357.202 319.832H354.05L355.111 313.356H351.596V310.465H355.586L356.283 306.295H352.783V303.405H356.758L357.85 296.834H360.986L359.909 303.405H362.459L363.552 296.834H366.703L365.61 303.405H369.268V306.295H365.135L364.439 310.465H368.065V313.356H363.964L362.902 319.832H359.751L360.812 313.356ZM358.737 310.465H361.287L361.984 306.295H359.434L358.737 310.465Z" fill="white"/>
<path d="M382.656 313.356H380.107L379.045 319.832H375.894L376.955 313.356H373.439V310.465H377.43L378.127 306.295H374.627V303.405H378.602L379.694 296.834H382.83L381.753 303.405H384.303L385.396 296.834H388.547L387.454 303.405H391.112V306.295H386.979L386.282 310.465H389.909V313.356H385.807L384.746 319.832H381.595L382.656 313.356ZM380.581 310.465H383.131L383.828 306.295H381.278L380.581 310.465Z" fill="white"/>
</g>
<defs>
<clipPath id="clip0_2306_2343">
<rect width="1440" height="643" fill="white"/>
</clipPath>
</defs>
</svg>
