<svg width="78" height="44" viewBox="0 0 78 44" fill="none" xmlns="http://www.w3.org/2000/svg">
<path d="M77.1578 11.4213C76.8414 11.0492 76.4531 10.7516 76.0188 10.5483C75.5845 10.3449 75.1139 10.2403 74.6381 10.2414H64.3296C64.3296 7.4598 64.4148 4.4857 62.5372 2.5188C60.6595 0.551907 58.7924 0 56.1371 0C53.4817 0 50.935 1.10499 49.0574 3.07189C47.1798 5.03878 46.0078 7.49655 44.6184 10.2414H35.4251C34.9522 10.2427 33.6826 10.3485 33.2513 10.5518C32.82 10.7551 32.4345 11.0514 32.1199 11.4213C31.8079 11.7899 31.5738 12.2233 31.4328 12.6932C31.2919 13.1632 31.0781 13.5804 30.9753 14.1482L30.3807 15.787L29.7862 17.4257L29.1917 19.0645L28.5971 20.7033L28.0204 22.4775L27.3079 24.2255L26.6729 25.8774L26.2368 27.3938L25.0477 30.6713L24.4532 32.3101L23.8586 33.9488L23.2641 35.5876L22.6695 37.2264L22.075 38.8651C21.6839 39.943 21.5119 41.1645 22.255 42.0378C22.4662 42.286 22.6963 42.5138 22.9134 42.7145C23.5291 43.2837 24.3236 43.5951 25.1448 43.5891L63.2167 43.9999C64.0379 44.0059 64.8324 43.6945 65.4481 43.1252C66.9545 41.7326 67.3978 39.5428 68.1867 37.649L77.4118 15.5062C77.7871 14.6054 78.1269 13.6274 77.846 12.693C77.7047 12.223 77.4702 11.7897 77.1578 11.4213ZM47.9557 18.9815C47.9557 19.4451 47.7799 19.8897 47.467 20.2175C47.1541 20.5453 46.7296 20.7295 46.2871 20.7295C45.8445 20.7295 45.4201 20.5453 45.1071 20.2175C44.7942 19.8897 44.6184 19.4451 44.6184 18.9815V15.4855C44.6184 15.0218 44.7942 14.5772 45.1071 14.2494C45.4201 13.9216 45.8445 13.7374 46.2871 13.7374C46.7296 13.7374 47.1541 13.9216 47.467 14.2494C47.7799 14.5772 47.9557 15.0218 47.9557 15.4855V18.9815ZM56.1371 3.49603C57.9073 3.49603 58.9255 3.6796 60.1773 4.99087C61.429 6.30213 60.9375 8.40756 60.9375 10.262L48.4445 10.2414C50.2735 6.94347 50.1655 6.85521 51.4173 5.54395C52.6691 4.23269 54.3668 3.49603 56.1371 3.49603ZM64.6427 18.9815C64.6427 19.4451 64.4669 19.8897 64.1539 20.2175C63.841 20.5453 63.4165 20.7295 62.974 20.7295C62.5314 20.7295 62.107 20.5453 61.794 20.2175C61.4811 19.8897 61.3053 19.4451 61.3053 18.9815V15.4855C61.3053 15.0218 61.4811 14.5772 61.794 14.2494C62.107 13.9216 62.5314 13.7374 62.974 13.7374C63.4165 13.7374 63.841 13.9216 64.1539 14.2494C64.4669 14.5772 64.6427 15.0218 64.6427 15.4855V18.9815Z" fill="#FA8E44"/>
<path d="M34.7497 21.8508L34.993 21.1803H34.2797H2.16438C1.24517 21.1803 0.5 21.9255 0.5 22.8447C0.5 23.7639 1.24517 24.5091 2.16438 24.5091H33.4349H33.7854L33.9049 24.1796L34.7497 21.8508Z" fill="#FA8C44" stroke="#222222"/>
<path d="M32.1905 28.8342L32.4282 28.1665H31.7195H9.84407C8.92486 28.1665 8.17969 28.9117 8.17969 29.8309C8.17969 30.7501 8.92486 31.4953 9.84407 31.4953H30.8904H31.2432L31.3615 31.163L32.1905 28.8342Z" fill="#FA8E43" stroke="#222222"/>
<path d="M29.6326 35.8184L29.8652 35.1533H29.1606H14.9652C14.046 35.1533 13.3008 35.8985 13.3008 36.8177C13.3008 37.7369 14.046 38.4821 14.9652 38.4821H28.3463H28.7011L28.8182 38.1471L29.6326 35.8184Z" fill="#FA8E43" stroke="#222222"/>
</svg>
