<svg width="77" height="44" viewBox="0 0 77 44" fill="none" xmlns="http://www.w3.org/2000/svg">
<path d="M0 22.8C0 22.2 0.500001 21.6 1.2 21.6H33.3L32.4 24H1.2C0.500001 24 0 23.5 0 22.8Z" fill="#FA8E44"/>
<path d="M7.7002 29.8C7.7002 29.2 8.20019 28.6 8.90019 28.6H30.8002L29.9002 31H8.90019C8.20019 31 7.7002 30.5 7.7002 29.8Z" fill="#FA8E44"/>
<path d="M12.7998 36.8C12.7998 36.2 13.2998 35.6 13.9998 35.6H28.1998L27.2998 38H13.9998C13.2998 38 12.7998 37.5 12.7998 36.8Z" fill="#FA8E44"/>
<path d="M28.1999 35.7H22.1999L21.6999 37.2L21.3999 38H27.2999L28.1999 35.7Z" fill="#FA8E44"/>
<path d="M29.8999 31L30.6999 28.7H24.7999L23.9999 30.7L23.8999 31H29.8999Z" fill="#FA8E44"/>
<path d="M33.2999 21.7H27.2999L26.9999 22.5L26.3999 24H32.3999L33.2999 21.7Z" fill="#FA8E44"/>
<path d="M76.8 12.7C76.7 12.2 76.4 11.8 76.1 11.4C75.8 11 75.4 10.7 75 10.5C74.6 10.3 74.1 10.2 73.6 10.2H63.3C63.3 7.4 63.4 4.4 61.5 2.5C59.6 0.5 57.8 0 55.1 0C52.4 0 49.9 1.1 48 3.1C46.1 5.1 45 7.5 43.6 10.3H34.4C33.9 10.3 32.7 10.4 32.2 10.6C31.8 10.8 31.4 11.1 31.1 11.5C30.8 11.9 30.6 12.3 30.4 12.8C30.3 13.3 30 13.7 29.9 14.3L29.3 15.9L28.7 17.5L28.1 19.1L27.5 20.7H34.6L33.1 25H26L25.7 25.9L25.3 27.4L25.2 27.7H32.2L30.6 32H23.6L23.5 32.3L22.9 33.9L22.6 34.6H29.6L28.1 39H21.1C20.7 40 20.6 41.2 21.3 42.1C21.5 42.3 21.7 42.6 22 42.8C22.6 43.4 23.4 43.7 24.2 43.7L62.2 44C63 44 63.8 43.7 64.4 43.1C65.9 41.7 66.3 39.5 67.1 37.6L76.3 15.5C76.8 14.6 77.1 13.6 76.8 12.7ZM47 19C47 19.5 46.8 19.9 46.5 20.2C46.2 20.5 45.8 20.7 45.3 20.7C44.9 20.7 44.4 20.5 44.1 20.2C43.8 19.9 43.6 19.4 43.6 19V15.5C43.6 15 43.8 14.6 44.1 14.3C44.4 14 44.8 13.8 45.3 13.8C45.7 13.8 46.2 14 46.5 14.3C46.8 14.6 47 15.1 47 15.5V19ZM59.9 10.3H47.4C49.2 7 49.1 6.9 50.4 5.6C51.7 4.3 53.3 3.6 55.1 3.6C56.9 3.6 57.9 3.8 59.1 5.1C60.4 6.3 59.9 8.4 59.9 10.3ZM63.6 19C63.6 19.5 63.4 19.9 63.1 20.2C62.8 20.5 62.4 20.7 61.9 20.7C61.5 20.7 61 20.5 60.7 20.2C60.4 19.9 60.2 19.4 60.2 19V15.5C60.2 15 60.4 14.6 60.7 14.3C61 14 61.4 13.8 61.9 13.8C62.3 13.8 62.8 14 63.1 14.3C63.4 14.6 63.6 15.1 63.6 15.5V19Z" fill="#FA8E44"/>
</svg>
