<svg width="49" height="34" viewBox="0 0 49 34" fill="none" xmlns="http://www.w3.org/2000/svg">
<rect x="0.5" y="0.5" width="48" height="33" rx="3.5" fill="white" stroke="#F3F3F3"/>
<path d="M28.9871 24.6301H20.2422V8.93542H28.9871V24.6301Z" fill="#FF5F00"/>
<path d="M20.8025 16.7814C20.8025 13.5976 22.2952 10.7617 24.6197 8.93406C22.9198 7.59762 20.7745 6.79994 18.4431 6.79994C12.9235 6.79994 8.44922 11.2687 8.44922 16.7814C8.44922 22.294 12.9235 26.7628 18.4431 26.7628C20.7745 26.7628 22.9198 25.9651 24.6197 24.6287C22.2952 22.8011 20.8025 19.9651 20.8025 16.7814" fill="#EB001B"/>
<path d="M40.7805 16.7814C40.7805 22.294 36.3062 26.7628 30.7867 26.7628C28.4552 26.7628 26.3099 25.9651 24.6094 24.6287C26.9345 22.8011 28.4272 19.9651 28.4272 16.7814C28.4272 13.5976 26.9345 10.7617 24.6094 8.93406C26.3099 7.59762 28.4552 6.79994 30.7867 6.79994C36.3062 6.79994 40.7805 11.2687 40.7805 16.7814" fill="#F79E1B"/>
</svg>
