<svg width="640" height="465" viewBox="0 0 640 465" fill="none" xmlns="http://www.w3.org/2000/svg">
<path opacity="0.1" d="M640 298.671C640.011 311.27 638.721 323.824 636.158 336.054C635.296 340.174 634.295 344.21 633.154 348.159C631.757 353.034 630.139 357.817 628.307 362.486C627.383 364.848 626.407 367.163 625.378 369.431C625.395 382.351 623.143 395.135 618.765 406.974C610.851 428.217 596.739 445.393 579.002 455.372C567.911 461.622 555.791 464.91 543.503 465H121.502C102.727 465.047 84.2753 459.22 68.0242 448.112L67.7742 447.945C65.4595 446.345 63.2027 444.65 61.0039 442.861C56.0566 438.824 51.4086 434.298 47.11 429.331C41.2918 422.614 36.165 415.11 31.8359 406.974C21.6684 387.903 16.2821 365.819 16.301 343.281C6.00421 321.939 0 296.373 0 268.901C0 234.239 9.54153 202.621 25.2177 178.685C28.4859 173.685 32.0657 168.979 35.9275 164.609C39.7377 160.284 43.8332 156.324 48.175 152.766C51.6487 149.917 55.2792 147.344 59.0423 145.064C60.6126 144.12 62.1884 143.228 63.7913 142.4C65.1987 141.662 66.6223 140.975 68.0622 140.327C69.7901 139.552 71.5398 138.84 73.3111 138.189C75.0825 137.539 76.8303 136.97 78.5546 136.482C81.0903 135.75 83.6695 135.155 86.2922 134.698C88.4657 134.319 90.6391 134.056 92.8126 133.857C94.5405 133.703 96.2847 133.619 98.0398 133.594H98.9907C100.925 133.594 102.849 133.683 104.756 133.837C104.957 133.362 105.174 132.881 105.375 132.412C106.136 130.699 106.924 128.991 107.717 127.322C107.715 127.308 107.715 127.292 107.717 127.278C107.853 126.982 107.989 126.693 108.13 126.411C108.771 125.044 109.44 123.689 110.124 122.348C110.439 121.706 110.749 121.103 111.07 120.499C111.138 120.349 111.212 120.204 111.293 120.063C111.619 119.421 111.95 118.779 112.287 118.137C113.964 114.971 115.708 111.86 117.52 108.804L117.981 108.021C118.264 107.546 118.525 107.084 118.84 106.609C119.59 105.37 120.361 104.125 121.138 102.906C121.682 102.033 122.225 101.166 122.812 100.338C124.225 98.1985 125.674 96.0589 127.159 93.9193C128.644 91.7797 130.187 89.668 131.788 87.584C132.006 87.2952 132.223 87.0127 132.451 86.7303L134.771 83.7392C134.886 83.598 134.983 83.4696 135.092 83.3412C135.369 82.9882 135.635 82.6352 135.934 82.295C137.179 80.7352 138.455 79.2075 139.738 77.6863C146.264 70.0079 153.216 62.8522 160.549 56.267C160.837 55.9974 161.13 55.7406 161.418 55.4839C162.798 54.2579 164.2 53.0447 165.602 51.8509C173.313 45.3162 181.374 39.3772 189.733 34.0709C190.309 33.6794 190.896 33.3135 191.488 32.9541C198.983 28.2704 206.69 24.079 214.576 20.399C218.874 18.39 223.27 16.5028 227.693 14.7762C230.638 13.6337 233.594 12.5489 236.588 11.5283C241.268 9.93647 245.981 8.50938 250.726 7.24702C264.706 3.54139 278.929 1.25228 293.239 0.404641C297.586 0.143612 301.982 0.00881989 306.427 0.000261566C327.873 -0.0332789 349.236 3.15897 370.001 9.5C370.215 9.88326 370.509 10.1957 370.854 10.4079C371.199 10.6202 371.584 10.7252 371.973 10.7131H373.799C374.592 10.9699 375.38 11.2266 376.173 11.4962C380.604 13.0025 384.97 14.6478 389.274 16.4322L390.361 16.8944C400.982 21.356 411.317 26.719 421.284 32.9413C430.268 38.5368 438.919 44.8504 447.175 51.838C448.447 52.9164 449.7 54.0033 450.935 55.0988C452.435 53.9648 453.96 52.8779 455.51 51.838C461.498 47.8099 467.857 44.6073 474.463 42.2934C488.274 37.4653 502.888 36.7901 516.976 40.3292C535.043 44.8544 551.398 56.0872 564.608 72.0635C569.986 78.6002 574.774 85.7809 578.893 93.4892C579.192 94.0413 579.491 94.5997 579.779 95.1645C583.319 101.987 586.362 109.153 588.874 116.584C588.967 116.86 589.059 117.117 589.141 117.386C591.461 124.345 593.331 131.501 594.737 138.793C594.803 139.165 594.879 139.531 594.944 139.903C596.259 146.96 597.152 154.118 597.617 161.323C597.617 161.579 597.617 161.842 597.661 162.112C597.889 165.839 598.005 169.605 598.008 173.409C598.008 176.811 597.911 180.187 597.731 183.538C597.731 183.904 597.688 184.282 597.661 184.661C597.612 185.63 597.541 186.587 597.471 187.562C601.62 191.517 605.505 195.845 609.088 200.509C610.671 202.55 612.203 204.668 613.685 206.864C618.197 213.545 622.164 220.717 625.53 228.283C634.718 248.772 640 272.874 640 298.671Z" fill="#887BB1"/>
<path opacity="0.1" d="M578 453.262C578 457.542 565.235 461.553 542.961 465H121.641C102.896 465.046 84.4745 459.357 68.2495 448.512L68 448.349C74.4014 445.654 85.9564 443.141 101.683 440.873L102.388 440.773C109.441 439.776 117.323 438.83 125.938 437.934C126.155 437.934 126.377 437.896 126.594 437.865C133.43 437.163 140.701 436.505 148.408 435.891C148.652 435.891 148.891 435.841 149.135 435.828C152.108 435.582 155.142 435.348 158.238 435.126L159.431 435.038C181.972 433.422 207.593 432.131 235.38 431.278H235.412C239.304 431.153 243.237 431.042 247.211 430.946C251.631 430.825 256.105 430.719 260.633 430.627C264.088 430.539 267.587 430.476 271.097 430.414H271.179C287.014 430.138 303.375 430 320.106 430C361.476 430 400.579 430.871 435.228 432.438H435.325C440.652 432.676 445.882 432.939 450.981 433.209L455.321 433.447C461.075 433.764 466.681 434.105 472.139 434.468C536.315 438.686 578 445.535 578 453.262Z" fill="#887BB1"/>
<g opacity="0.2">
<path opacity="0.2" d="M369.562 426.709C369.545 427.402 369.477 428.092 369.361 428.772C365.58 428.061 361.777 427.418 357.953 426.844C357.953 426.664 357.953 426.478 357.953 426.291C357.989 424.364 358.457 422.482 359.311 420.841C360.43 418.745 362.131 417.434 364.005 417.505C365.879 417.575 367.503 419.009 368.508 421.175C369.268 422.876 369.632 424.786 369.562 426.709V426.709Z" fill="#222222"/>
<path opacity="0.2" d="M369.873 415.725C370.006 410.755 367.513 406.628 364.304 406.508C361.096 406.388 358.387 410.32 358.254 415.291C358.121 420.262 360.615 424.389 363.823 424.509C367.032 424.629 369.741 420.696 369.873 415.725Z" fill="#222222"/>
<path opacity="0.2" d="M370.17 404.721C370.303 399.75 367.81 395.623 364.601 395.503C361.392 395.383 358.684 399.316 358.551 404.287C358.418 409.257 360.912 413.384 364.12 413.504C367.329 413.624 370.038 409.692 370.17 404.721Z" fill="#222222"/>
<path opacity="0.2" d="M370.461 393.717C370.594 388.746 368.101 384.619 364.892 384.499C361.683 384.379 358.975 388.311 358.842 393.282C358.709 398.253 361.203 402.38 364.411 402.5C367.62 402.62 370.329 398.688 370.461 393.717Z" fill="#222222"/>
<path opacity="0.2" d="M370.752 382.712C370.885 377.741 368.392 373.614 365.183 373.495C361.974 373.375 359.266 377.307 359.133 382.278C359 387.249 361.494 391.376 364.702 391.496C367.911 391.616 370.62 387.683 370.752 382.712Z" fill="#222222"/>
<path opacity="0.2" d="M345.17 306.359C344.405 305.134 343.715 303.845 343.106 302.503L358.457 300.105L341.932 299.636C340.458 295.497 339.712 291.046 339.741 286.555C339.77 282.063 340.573 277.626 342.101 273.515L363.895 287.944L343.931 269.407C345.945 265.553 348.609 262.232 351.757 259.651C354.904 257.07 358.468 255.284 362.225 254.406C365.982 253.527 369.851 253.575 373.592 254.545C377.333 255.516 380.864 257.389 383.966 260.047C387.067 262.705 389.673 266.091 391.618 269.993C393.564 273.896 394.809 278.232 395.275 282.729C395.741 287.227 395.419 291.79 394.327 296.133C393.236 300.476 391.4 304.507 388.933 307.973C390.123 309.879 391.134 311.933 391.948 314.098L371.799 325.539L393.165 317.935C394.51 323.188 394.727 328.755 393.795 334.132C392.864 339.51 390.814 344.527 387.83 348.73C390.932 353.709 392.787 359.621 393.183 365.79C393.579 371.958 392.499 378.134 390.068 383.61C387.638 389.087 383.953 393.644 379.437 396.76C374.92 399.875 369.754 401.424 364.528 401.229C359.302 401.035 354.228 399.104 349.887 395.657C345.545 392.211 342.111 387.389 339.976 381.742C337.842 376.095 337.093 369.851 337.817 363.724C338.54 357.598 340.706 351.836 344.067 347.097C340.361 341.146 338.454 333.894 338.651 326.506C338.848 319.117 341.138 312.022 345.154 306.359H345.17Z" fill="#887BB1"/>
<path opacity="0.1" d="M394.349 328.586C394.159 335.979 391.861 343.078 387.83 348.73C390.932 353.71 392.787 359.622 393.183 365.79C393.579 371.958 392.499 378.134 390.068 383.611C387.638 389.087 383.953 393.644 379.437 396.76C374.92 399.876 369.754 401.425 364.528 401.23C359.302 401.035 354.228 399.104 349.887 395.657C345.545 392.211 342.111 387.389 339.976 381.742C337.842 376.095 337.093 369.851 337.817 363.724C338.54 357.598 340.706 351.836 344.067 347.097C340.498 341.358 394.447 324.89 394.349 328.586Z" fill="black"/>
</g>
<g opacity="0.2">
<path opacity="0.2" d="M286.99 426.709C286.972 427.402 286.905 428.092 286.789 428.772C283.008 428.061 279.205 427.418 275.381 426.844C275.381 426.664 275.381 426.478 275.381 426.291C275.416 424.364 275.885 422.482 276.739 420.841C277.858 418.745 279.558 417.434 281.432 417.505C283.307 417.575 284.931 419.009 285.936 421.175C286.696 422.876 287.06 424.786 286.99 426.709V426.709Z" fill="#222222"/>
<path opacity="0.2" d="M287.295 415.728C287.428 410.757 284.935 406.63 281.726 406.51C278.517 406.39 275.809 410.323 275.676 415.293C275.543 420.264 278.037 424.391 281.245 424.511C284.454 424.631 287.163 420.699 287.295 415.728Z" fill="#222222"/>
<path opacity="0.2" d="M287.592 404.723C287.725 399.753 285.231 395.626 282.023 395.506C278.814 395.386 276.106 399.318 275.973 404.289C275.84 409.26 278.334 413.387 281.542 413.507C284.751 413.627 287.459 409.694 287.592 404.723Z" fill="#222222"/>
<path opacity="0.2" d="M287.883 393.72C288.016 388.749 285.522 384.622 282.314 384.502C279.105 384.382 276.397 388.314 276.264 393.285C276.131 398.256 278.625 402.383 281.833 402.503C285.042 402.623 287.75 398.69 287.883 393.72Z" fill="#222222"/>
<path opacity="0.2" d="M288.174 382.715C288.307 377.744 285.813 373.617 282.605 373.497C279.396 373.377 276.688 377.31 276.555 382.281C276.422 387.252 278.916 391.379 282.124 391.498C285.333 391.618 288.041 387.686 288.174 382.715Z" fill="#222222"/>
<path opacity="0.2" d="M262.598 306.359C261.833 305.134 261.143 303.845 260.533 302.503L275.885 300.105L259.36 299.636C257.885 295.497 257.14 291.046 257.169 286.555C257.198 282.063 258.001 277.626 259.528 273.515L281.323 287.944L261.359 269.407C263.373 265.553 266.037 262.232 269.185 259.651C272.332 257.07 275.896 255.284 279.653 254.406C283.41 253.527 287.279 253.575 291.02 254.545C294.761 255.516 298.292 257.389 301.394 260.047C304.495 262.705 307.1 266.091 309.046 269.993C310.992 273.896 312.237 278.232 312.703 282.729C313.169 287.227 312.846 291.79 311.755 296.133C310.664 300.476 308.827 304.507 306.361 307.973C307.55 309.879 308.561 311.933 309.375 314.098L289.227 325.539L310.592 317.935C311.938 323.188 312.155 328.755 311.223 334.132C310.292 339.51 308.241 344.527 305.258 348.73C308.36 353.709 310.215 359.621 310.61 365.79C311.006 371.958 309.927 378.134 307.496 383.61C305.065 389.087 301.381 393.644 296.864 396.76C292.348 399.875 287.181 401.424 281.956 401.23C276.73 401.035 271.656 399.104 267.314 395.657C262.973 392.211 259.538 387.389 257.404 381.742C255.269 376.095 254.521 369.851 255.245 363.724C255.968 357.598 258.134 351.836 261.495 347.097C257.789 341.146 255.881 333.894 256.078 326.506C256.276 319.118 258.566 312.022 262.581 306.359H262.598Z" fill="black"/>
<path opacity="0.1" d="M311.777 328.586C311.586 335.979 309.289 343.078 305.258 348.73C308.36 353.71 310.215 359.622 310.61 365.79C311.006 371.958 309.927 378.134 307.496 383.611C305.065 389.087 301.381 393.644 296.864 396.76C292.348 399.876 287.181 401.425 281.956 401.23C276.73 401.035 271.656 399.104 267.314 395.657C262.973 392.211 259.538 387.389 257.404 381.742C255.269 376.095 254.521 369.851 255.245 363.724C255.968 357.598 258.134 351.836 261.495 347.097C257.926 341.358 311.874 324.89 311.777 328.586Z" fill="black"/>
</g>
<g opacity="0.2">
<path opacity="0.2" d="M512.539 433.741C512.497 435.054 512.364 436.361 512.142 437.649C504.863 436.273 497.531 435.043 490.146 433.959C490.146 433.612 490.146 433.259 490.146 432.899C490.215 429.187 491.119 425.564 492.765 422.402C494.938 418.372 498.197 415.846 501.799 415.975C505.4 416.103 508.535 418.874 510.491 423.045C511.965 426.331 512.672 430.023 512.539 433.741V433.741Z" fill="#222222"/>
<path opacity="0.2" d="M513.131 412.579C513.387 403.006 508.584 395.058 502.403 394.827C496.223 394.596 491.006 402.169 490.75 411.742C490.494 421.315 495.297 429.262 501.478 429.493C507.658 429.724 512.875 422.151 513.131 412.579Z" fill="#222222"/>
<path opacity="0.2" d="M513.695 391.393C513.951 381.82 509.148 373.873 502.968 373.642C496.788 373.411 491.57 380.984 491.314 390.556C491.059 400.129 495.862 408.076 502.042 408.308C508.222 408.539 513.44 400.966 513.695 391.393Z" fill="#222222"/>
<path opacity="0.2" d="M514.264 370.208C514.519 360.635 509.716 352.688 503.536 352.457C497.356 352.226 492.139 359.799 491.883 369.371C491.627 378.944 496.43 386.891 502.61 387.123C508.791 387.354 514.008 379.781 514.264 370.208Z" fill="#222222"/>
<path opacity="0.2" d="M514.193 348.058C514.436 338.481 509.62 330.539 503.437 330.319C497.253 330.1 492.044 337.686 491.801 347.263C491.558 356.841 496.374 364.783 502.557 365.002C508.741 365.222 513.95 357.636 514.193 348.058Z" fill="#222222"/>
<path opacity="0.2" d="M465.576 202.053C464.111 199.693 462.784 197.217 461.605 194.642L491.157 190.027L459.351 189.121C456.51 181.154 455.073 172.585 455.127 163.938C455.181 155.291 456.726 146.748 459.666 138.832L501.631 166.605L463.203 130.919C467.088 123.517 472.22 117.142 478.28 112.189C484.339 107.237 491.196 103.815 498.422 102.135C505.648 100.456 513.089 100.555 520.281 102.427C527.474 104.3 534.263 107.905 540.226 113.018C546.189 118.13 551.199 124.642 554.942 132.146C558.685 139.65 561.082 147.985 561.983 156.633C562.884 165.281 562.27 174.056 560.18 182.411C558.089 190.766 554.567 198.522 549.832 205.196C552.12 208.869 554.067 212.823 555.639 216.991L516.847 239.031L557.975 224.376C560.567 234.476 560.989 245.182 559.203 255.524C557.417 265.866 553.479 275.518 547.746 283.606C553.716 293.192 557.286 304.574 558.047 316.448C558.809 328.322 556.731 340.21 552.051 350.753C547.371 361.295 540.278 370.067 531.583 376.065C522.888 382.062 512.943 385.044 502.883 384.669C492.824 384.293 483.057 380.576 474.698 373.942C466.34 367.309 459.729 358.026 455.619 347.155C451.51 336.285 450.069 324.266 451.461 312.472C452.853 300.678 457.021 289.585 463.49 280.463C456.36 269.007 452.689 255.048 453.068 240.828C453.446 226.607 457.851 212.949 465.576 202.047V202.053Z" fill="black"/>
<path opacity="0.1" d="M560.262 244.835C559.905 259.058 555.503 272.723 547.767 283.619C553.738 293.205 557.308 304.587 558.069 316.461C558.83 328.335 556.752 340.223 552.072 350.766C547.392 361.308 540.299 370.08 531.605 376.078C522.91 382.075 512.964 385.057 502.905 384.682C492.845 384.306 483.078 380.589 474.72 373.956C466.362 367.322 459.75 358.039 455.641 347.168C451.531 336.298 450.09 324.279 451.482 312.485C452.874 300.691 457.043 289.598 463.512 280.476C456.591 269.414 560.452 237.72 560.262 244.835Z" fill="black"/>
</g>
<path d="M86 435L91.676 434.981H99.6786L109.797 239.499L210 40.6395L205.644 35.0797V21L97.2762 234.892L86 435Z" fill="#FA8E43"/>
<path opacity="0.1" d="M92 435H99.4143L109.557 239.47L210 40.5612L205.634 35L102.029 236.49L92 435Z" fill="black"/>
<path d="M69 435.918L329.49 459.98L329.713 460L581.81 441.285L582 441.272V428.422L304.22 422.269L72.4689 422H70.7751L70.5906 423.442L69 435.918Z" fill="#FA8E43"/>
<path opacity="0.1" d="M69 435.918L329.49 459.98L329.713 460L581.81 441.285L582 441.036V428.69H581.777L329.49 438.86L72.4689 422H72.4309L71.9749 422.36L70.5906 423.442L69 435.918Z" fill="black"/>
<path opacity="0.1" d="M69 436.974L330 460V439.79L71.9807 424L70.5937 425.035L69 436.974Z" fill="black"/>
<path d="M206 34.6608L320.743 180.698L317.196 437.579L326.943 438.974L327.105 439H336.852L338.018 191.728L552.876 276.832L556.499 428.362L564.342 429.404L567 429.758L560.849 266.323L336.245 172.819L213.089 21H206V34.6608Z" fill="#FA8E43"/>
<path opacity="0.1" d="M337 187L337.887 191.739L553.494 277.052L557.13 428.955L565 430L558.828 273.893L337 187Z" fill="black"/>
<path opacity="0.1" d="M206 34.6617L321.114 180.708L317.555 437.604L327.334 439L330 172.301L206 21V34.6617Z" fill="black"/>
<path d="M338 289.849L416.743 308.432L416.77 308.439L554.686 341L561 337.967L560.978 337.434L560.566 326.879L338.081 273L338 289.849Z" fill="#FA8E43"/>
<path opacity="0.1" d="M417 309L554.696 341L561 338.019L560.978 337.496L417 309Z" fill="black"/>
<path d="M422 225L424.127 363.794L425.225 435L434.907 434.615L441 434.371L439.106 227.008L434.907 225.353L433.987 225H422Z" fill="#FA8E43"/>
<path opacity="0.1" d="M422 225V225.032L424.069 363.805L425.183 435L435 434.615V225H422Z" fill="black"/>
<path d="M269.646 260.552C270.203 260.906 270.735 261.311 271.238 261.763C271.832 262.372 272.366 263.057 272.829 263.806C275.106 267.252 277.207 271.257 276.984 275.604C276.988 276.236 276.886 276.863 276.683 277.449C276.48 278.036 276.18 278.569 275.801 279.019C274.861 279.957 273.514 280 272.283 280C270.946 280 269.54 280 268.383 279.193C267.227 278.386 266.261 276.815 264.892 276.852C264.699 276.889 264.502 276.889 264.309 276.852C263.836 276.672 263.741 275.945 263.433 275.486C262.903 274.66 261.783 274.865 260.95 275.225C260.117 275.585 259.194 276.125 258.372 275.709C257.894 275.414 257.504 274.958 257.252 274.399C255.284 270.673 254.865 266.196 254.493 261.868C254.265 259.236 252.525 250.257 257.326 252.3C259.449 253.194 261.433 254.982 263.364 256.292L269.646 260.552Z" fill="#222222"/>
<path d="M264.978 261.643C265.407 262.031 265.927 262.228 266.456 262.201C266.984 262.175 267.49 261.926 267.894 261.495C268.685 260.596 269.189 259.364 269.312 258.031C269.843 257.824 270.114 258.7 270.454 259.235C271.049 260.144 272.26 260.131 272.802 261.101C273.179 261.77 273.094 262.699 273.359 263.455C273.705 264.431 274.56 264.94 275.144 265.729C275.696 266.591 276.094 267.592 276.313 268.665L277.184 271.955C277.6 273.323 277.868 274.756 277.98 276.215C278.035 276.944 277.974 277.68 277.801 278.379C277.628 279.079 277.346 279.728 276.971 280.288C275.803 281.873 273.885 282.04 272.191 281.993C271.625 282.009 271.06 281.925 270.512 281.746C269.009 281.157 268.048 279.251 267.649 277.332C267.251 275.413 267.293 273.4 267.06 271.433C266.807 269.502 266.361 267.619 265.732 265.829C265.264 264.438 263.979 262.365 264 260.887C264.383 260.887 264.659 261.328 264.978 261.643Z" fill="#222222"/>
<path d="M266.402 255.337C266.148 254.419 266 253.463 265.962 252.498C265.962 250.557 266.706 248.733 267.455 247L261.252 248.003C260.504 248.125 259.668 248.306 259.245 249.05C259.084 249.419 259 249.828 259 250.244C259 250.659 259.084 251.068 259.245 251.437C259.556 252.175 259.803 252.948 259.983 253.746C259.997 254.444 260.064 255.139 260.183 255.822C260.376 256.324 260.647 256.778 260.981 257.161C262.755 259.502 264.085 262.264 265.409 265C265.371 264.922 269.147 261.436 268.996 260.298C268.909 259.651 267.818 258.875 267.471 258.254C266.991 257.353 266.631 256.369 266.402 255.337V255.337Z" fill="#BE6F72"/>
<path d="M320 230V236.355L228.195 257.581L223.432 261H207V257.419L297.2 231.587L320 230Z" fill="#FA8E43"/>
<path opacity="0.1" d="M320 237L228.195 257.67L223.432 261H207L297.869 238.552L320 237Z" fill="black"/>
<path d="M246.058 410.074C245.05 408.6 243.66 407.582 242.112 407.185C240.565 406.788 238.951 407.035 237.535 407.886C237.232 408.058 236.964 408.31 236.752 408.624C236.216 409.53 236.559 410.779 236.608 411.899C236.731 414.631 234.93 416.851 233.311 418.761C232.443 419.784 231.558 420.878 231.167 422.27C230.776 423.662 231.065 425.429 232.116 426.154C232.574 426.431 233.073 426.599 233.584 426.646C235.298 427.05 237.055 427.109 238.784 426.821C240.494 426.426 242.171 425.254 242.911 423.351C243.054 422.835 243.29 422.364 243.603 421.972C244.546 421.072 245.993 422.127 247.065 421.486C247.95 420.956 247.987 420.121 247.998 419.02C248.03 415.978 247.655 412.534 246.058 410.074Z" fill="#887BB1"/>
<path d="M259.172 409.627C259.807 411.696 259.894 413.95 259.977 416.159C260.023 417.436 260.054 418.802 259.497 419.881C258.94 420.96 257.851 421.528 256.808 421.796C254.656 422.345 252.164 421.828 250.776 419.715C249.713 418.1 249.491 415.884 249.687 413.79C249.852 412.072 250.203 410.061 249.207 408.842C248.949 408.516 248.613 408.286 248.376 407.935C247.86 407.156 247.943 405.982 248.221 405.024C248.584 404.108 248.856 403.141 249.031 402.144C249.073 401.672 256.019 402.476 256.659 402.866C257.531 403.396 257.397 404.283 257.66 405.356C258.026 406.85 258.728 408.197 259.172 409.627Z" fill="#887BB1"/>
<path d="M260.458 316.995C261.901 318.099 262.458 320.268 262.682 322.282C263.299 327.802 262.218 333.379 262.136 338.95C262.059 346.754 263.971 354.701 262.338 362.26C261.36 366.779 262.19 371.943 261.272 376.507C260.999 377.862 260.497 379.14 260.234 380.496C259.688 383.433 260.262 386.506 261.032 389.379C261.278 390.153 261.434 390.963 261.496 391.786C261.459 393.054 261.187 394.297 260.699 395.427L257.421 404.587C257.055 405.614 255.613 405.781 254.689 405.917C252.952 406.162 251.013 406.337 249.631 405.065C248.248 403.793 247.915 401.663 247.702 399.675C247.293 395.858 247.111 392.012 247.156 388.165C247.216 387.161 247.14 386.152 246.932 385.176C246.631 384.072 245.97 383.117 245.79 381.949C245.561 380.438 246.211 378.953 246.451 377.43C246.616 376.038 246.598 374.625 246.396 373.24C246.183 371.175 245.938 369.109 245.659 367.056C245.266 364.184 245.828 361.35 246.205 358.471C246.56 355.766 246.107 353.009 245.659 350.324C245.698 352.504 245.468 354.678 244.976 356.779C244.686 357.806 244.271 358.787 244.02 359.833C242.9 364.526 245.287 369.451 244.949 374.312C244.79 376.584 244.036 378.831 244.249 381.071C244.397 382.71 245.042 384.214 245.484 385.776C245.927 387.339 246.156 389.127 245.484 390.586C243.709 394.549 245.036 399.939 246.626 404.006C246.949 404.727 247.23 405.474 247.467 406.24C247.937 408.073 247.544 410.042 247.669 411.953C247.212 412.041 246.743 412.005 246.299 411.847C245.855 411.69 245.448 411.414 245.107 411.043C244.867 410.746 244.67 410.397 244.435 410.087C243.779 409.348 243.002 408.775 242.152 408.402C241.652 408.072 241.084 407.918 240.513 407.957C239.912 408.155 239.372 408.551 238.956 409.099C238.415 409.661 237.842 410.176 237.24 410.642C236.984 410.875 236.684 411.032 236.366 411.101C236.206 411.13 236.043 411.099 235.898 411.012C235.754 410.925 235.637 410.787 235.563 410.616C235.529 410.509 235.509 410.396 235.503 410.281C235.3 408.332 235.193 406.37 235.181 404.406C235.181 401.03 231.761 398.706 231.329 395.369C230.985 392.677 231.624 389.934 231.411 387.222C231.307 385.828 230.98 384.46 231.001 383.065C231.001 382.162 231.176 381.277 231.236 380.38C231.286 379.384 231.274 378.385 231.198 377.391L231.029 374.273C230.865 371.194 230.685 368.05 229.658 365.236C228.44 361.949 227.718 358.436 227.527 354.856C227.418 352.596 227.489 350.337 227.27 348.071C227.073 346.025 226.636 343.991 226.762 341.939C226.866 340.351 227.308 338.814 227.412 337.226C227.625 334.173 226.642 331.203 225.872 328.279C225.101 325.355 224.533 322.114 225.544 319.293C225.688 318.83 225.929 318.418 226.243 318.093C226.631 317.79 227.072 317.596 227.532 317.525C236.906 315.198 246.513 314.474 256.061 315.375C257.617 315.479 259.128 316.036 260.458 316.995Z" fill="#222222"/>
<path d="M230 248C234.971 248 239 243.523 239 238C239 232.477 234.971 228 230 228C225.029 228 221 232.477 221 238C221 243.523 225.029 248 230 248Z" fill="#BE6F72"/>
<path d="M228.364 251.545C228.489 252.16 228.489 252.803 228.364 253.418C228.227 253.848 228.034 254.247 227.792 254.6C226.948 255.944 226.014 257.198 225 258.348C225.517 259.772 226.447 260.905 227.607 261.525C228.759 262.13 229.968 262.556 231.205 262.794C231.823 262.995 232.466 263.049 233.1 262.955C233.684 262.774 234.237 262.465 234.733 262.042L239.577 258.462C240.308 257.974 240.985 257.371 241.591 256.669C242.48 255.542 242.982 254.037 242.995 252.465C243.018 252.183 242.956 251.901 242.821 251.672C242.636 251.473 242.403 251.353 242.157 251.33C240.453 250.866 239.109 249.16 238.347 247.226C237.658 245.243 237.212 243.145 237.024 241L231.859 244.358C231.091 244.862 230.329 245.366 229.534 245.802C229.028 246.084 228.005 246.319 227.645 246.89C226.96 247.945 228.184 250.275 228.364 251.545Z" fill="#BE6F72"/>
<path d="M224.787 256.47C224.062 257.173 223.495 258.077 223.139 259.101C222.806 260.369 223.139 261.707 223.439 262.962C224.848 268.312 225.925 273.776 226.661 279.311C227.112 283.114 227.278 286.975 227.498 290.823C227.949 298.671 228.604 311.185 229.479 318.982C232.701 319.153 235.841 318.044 239.036 317.638C245.006 316.89 251.153 318.602 257 317.004C255.583 310.392 254.165 299.102 252.748 292.497C252.121 289.894 251.686 287.232 251.449 284.541C251.325 282.607 251.4 280.667 251.422 278.721C251.47 274.918 251.293 271.114 251.116 267.31C250.912 262.873 250.708 258.435 249.816 254.093C249.754 253.54 249.535 253.028 249.194 252.641C248.657 252.179 247.959 252.343 247.32 252.445C245.364 252.738 243.384 252.184 241.747 250.885C241.038 250.315 240.088 249.617 239.428 250.251C239.146 250.634 238.96 251.101 238.891 251.602C238.599 252.498 238.148 253.311 237.568 253.986C236.989 254.66 236.294 255.181 235.53 255.513C234 256.167 232.398 256.556 230.773 256.667C230.276 256.793 229.758 256.724 229.297 256.47C228.534 255.919 228.481 253.935 227.52 253.801C226.677 253.687 225.356 255.83 224.787 256.47Z" fill="#222222"/>
<path d="M237.37 271.704C235.36 269.448 234.477 266.176 233.012 263.396C232.014 261.527 230.739 259.882 229.248 258.54C228.498 257.959 227.81 257.274 227.199 256.501C226.682 255.754 226.29 254.757 225.505 254.469C225.181 254.386 224.845 254.397 224.525 254.501C224.205 254.604 223.911 254.797 223.669 255.063C223.189 255.6 222.734 256.168 222.307 256.763C219.998 259.569 215.939 259.958 214.109 263.205C213.615 263.893 213.279 264.718 213.134 265.601C212.607 270.326 213.648 275.108 216.043 278.957C216.506 279.849 217.218 280.526 218.058 280.874C217.944 282.066 218.079 283.272 218.451 284.389C219.459 288.433 220.699 292.394 222.16 296.243C221.811 297.749 221.567 299.285 221.43 300.838C221.049 304.742 221.403 308.704 221.044 312.615C220.749 315.81 219.954 318.922 219.927 322.124C219.927 322.635 219.965 323.242 220.341 323.504C220.541 323.625 220.765 323.68 220.989 323.664L227.69 323.901C231.579 324.035 235.507 324.169 239.336 323.325C239.846 323.237 240.341 323.054 240.802 322.782C242.098 321.932 242.529 320.015 242.736 318.309C243.006 316.096 243.113 313.859 243.057 311.625C243.869 314.635 244.833 317.747 247.284 319.05C248.581 319.74 250.062 319.689 251.484 319.645C254.549 319.484 257.603 319.115 260.631 318.539C260.817 318.566 261.007 318.542 261.184 318.468C261.361 318.393 261.521 318.272 261.65 318.112C261.78 317.952 261.876 317.759 261.931 317.548C261.986 317.337 261.997 317.114 261.965 316.897L261.998 313.408C262.063 306.321 260.565 299.547 259.982 292.492C259.797 290.268 259.813 288.019 259.35 285.839C259.16 284.926 258.882 284.031 258.713 283.111C258.568 282.21 258.477 281.298 258.441 280.382L258.016 273.353C257.814 270.1 257.526 266.962 257.313 263.716C257.196 260.555 256.806 257.416 256.147 254.348C255.673 252.431 254.687 250.258 252.982 250.021C252.073 249.9 251.19 250.366 250.324 250.692C248.195 251.479 245.91 251.467 243.787 250.66C243.131 250.357 242.447 250.142 241.75 250.021C241.398 249.965 241.041 250.02 240.713 250.179C240.386 250.339 240.101 250.597 239.887 250.929C239.675 251.428 239.576 251.982 239.598 252.539C239.342 258.923 238.868 265.499 237.37 271.704Z" fill="#887BB1"/>
<path d="M228.961 272.381C226.476 269.279 223.926 266.121 220.724 264.149C219.463 263.37 218.029 262.783 216.633 263.077C215.237 263.37 213.938 264.806 214.002 266.484C214.045 267.525 214.579 268.443 214.746 269.464C214.94 270.613 214.66 271.838 214.962 272.948C215.207 273.68 215.574 274.346 216.04 274.907L219.856 280.261C221.473 282.495 223.091 284.76 225.171 286.304C227.252 287.848 229.947 288.569 232.233 287.472C233.859 286.577 235.211 285.108 236.103 283.267C237.052 281.48 237.72 279.527 238.61 277.683C239.994 274.737 241.821 272.114 244 269.943C242.879 269.598 241.472 269.113 240.766 268.029C240.565 267.684 240.393 267.316 240.254 266.931L239.38 264.698C239.083 264.679 238.786 264.734 238.508 264.858C238.23 264.982 237.976 265.173 237.763 265.419C237.389 265.931 236.987 266.415 236.561 266.867C235.801 267.544 234.772 267.729 234.082 268.501C233.815 268.832 233.573 269.191 233.359 269.573C232.837 270.385 232.175 271.055 231.416 271.54C230.658 272.024 229.821 272.311 228.961 272.381V272.381Z" fill="#222222"/>
<path d="M244.69 258.558C246.545 254.425 246.459 249.471 246.989 244.803C247.046 243.567 247.401 242.379 248.01 241.389C249.079 239.914 250.966 239.894 252.581 240.083C253.056 240.149 253.65 240.423 253.623 241.004C253.586 241.212 253.502 241.404 253.382 241.559C251.818 244.025 250.897 247.009 250.742 250.123C251.581 250.835 252.88 249.373 253.687 250.123C254.222 250.672 253.976 251.755 253.655 252.539C252.91 254.354 252.142 256.155 251.351 257.944C250.719 259.521 249.896 260.971 248.908 262.246C248.229 263.042 247.432 263.669 246.743 264.452C245.139 266.287 244.171 268.878 242.514 270.667C242.374 270.852 242.185 270.97 241.98 271C241.769 270.982 241.57 270.873 241.418 270.693C240.59 269.871 239.904 268.857 239.398 267.71C238.767 266.287 238.863 265.869 239.857 264.864C241.718 263.068 243.53 261.143 244.69 258.558Z" fill="#BE6F72"/>
<path d="M225.962 269.579C226.28 269.844 226.673 270.145 227.024 269.923C227.167 269.806 227.289 269.647 227.38 269.457C227.987 268.364 228.494 267.176 228.888 265.919C228.956 265.741 228.994 265.545 229 265.346C229 264.887 228.697 264.551 228.416 264.286C226.907 262.989 225.285 261.95 223.587 261.191C222.185 260.475 220.719 259.852 219.232 260.031C218.673 260.082 218.127 260.284 217.628 260.626C217.129 260.969 216.686 261.443 216.326 262.022C215.264 263.863 217.043 264.422 218.159 265.088C220.74 266.671 223.534 267.588 225.962 269.579Z" fill="#887BB1"/>
<path opacity="0.1" d="M224.009 281.146C223.989 281.301 224.001 281.459 224.045 281.607C224.088 281.755 224.162 281.89 224.26 282C224.433 281.038 224.206 280.022 224.385 279.053C224.647 277.597 225.893 276.499 226 275.036C223.717 274.528 224.027 279.575 224.009 281.146Z" fill="black"/>
<path opacity="0.2" d="M320 230V236.396L297.675 238L297 231.597L320 230Z" fill="black"/>
<path d="M221.652 239.703C223.031 238.417 222.233 235.72 223.167 233.992C223.71 233.048 224.627 232.55 225.528 232.128C226.616 231.545 227.781 231.176 228.976 231.034C229.574 230.968 230.177 231.058 230.741 231.295C231.305 231.533 231.815 231.913 232.233 232.407C232.585 232.867 232.824 233.427 233.155 233.905C233.566 234.463 234.1 234.884 234.702 235.123C235.304 235.361 235.952 235.409 236.575 235.26C237.297 235.073 238.047 234.446 237.998 233.601C237.916 233.087 237.687 232.618 237.346 232.271L235.794 230.301C234.029 228.064 232.07 225.69 229.48 225.13C227.678 224.739 225.832 225.292 224.095 225.957C223.395 226.224 222.608 226.622 222.412 227.436C222.282 227.995 222.478 228.604 222.364 229.17C222.141 230.295 220.882 230.674 220.295 231.618C219.709 232.563 219.888 233.681 219.72 234.725C219.552 235.769 219.063 236.789 219.003 237.87C218.965 238.522 219.253 239.734 219.894 239.97C220.534 240.207 221.256 238.926 221.652 239.703Z" fill="#222222"/>
<path d="M238 232.953C237.541 230.188 236.55 227.576 235.102 225.311C233.814 223.194 232.022 221.552 229.943 220.585C228.903 220.116 227.786 219.925 226.673 220.026C225.561 220.128 224.483 220.518 223.52 221.169C222.091 222.346 220.978 223.965 220.311 225.838C218.9 229.345 218.377 233.631 220.017 237C220.671 236.082 221.793 236.497 222.785 236.164C224.027 235.756 225.078 234.8 226.26 234.203C229.828 232.387 234.187 233.858 238 232.953Z" fill="#FED253"/>
<path opacity="0.1" d="M221.14 232.903C221.025 231.937 220.95 230.816 221.59 230.129C221.622 230.087 221.662 230.053 221.708 230.031C221.754 230.009 221.805 229.998 221.855 230C221.9 230.016 221.941 230.041 221.976 230.074C222.011 230.107 222.04 230.148 222.06 230.193C222.429 230.819 222.744 231.48 223 232.168C222.627 232.076 222.238 232.106 221.881 232.254C221.524 232.403 221.217 232.662 221 233" fill="black"/>
<path opacity="0.1" d="M233.29 229.668L233.068 227.034C233.032 226.817 233.047 226.592 233.111 226.384C233.204 226.211 233.347 226.084 233.513 226.03C233.679 225.975 233.856 225.996 234.01 226.089C234.313 226.29 234.563 226.589 234.731 226.952C235.244 227.895 235.669 228.902 236 229.956C235.008 229.727 233.987 229.742 233 230" fill="black"/>
<path opacity="0.1" d="M238 323V327.733L234.326 328H215V323H238Z" fill="black"/>
<path d="M238 322.495V328H214.754L153 236.33V232H165.946L238 322.495Z" fill="#FA8E43"/>
<path opacity="0.1" d="M238 322.495V328H214.754L153 236.33V232H165.946L238 322.495Z" fill="black"/>
<path opacity="0.1" d="M238 322.495V328H214.754L153 236.33V232L215.089 322.495H238Z" fill="black"/>
<path d="M160.525 415.349C160.566 415.61 160.561 415.878 160.51 416.136C160.46 416.395 160.364 416.638 160.23 416.851C160.095 417.064 159.925 417.242 159.73 417.374C159.534 417.506 159.318 417.589 159.094 417.618C157.576 418.222 155.965 418.82 154.889 420.189C153.813 421.558 153.6 424.097 154.889 425.209C155.547 425.676 156.304 425.919 157.073 425.909C159.547 426.109 162.125 426.07 164.37 424.836C165.975 423.962 167.488 422.471 169.252 422.606C170.164 422.67 171.137 423.171 171.95 422.683C172.764 422.194 172.994 420.832 172.999 419.694C173.02 417.319 172.715 414.956 172.098 412.695C172.016 412.386 168.542 412.149 168.127 412.052L163.916 411.409C163.119 411.287 161.399 410.58 160.771 411.364C160.143 412.149 160.525 414.417 160.525 415.349Z" fill="#887BB1"/>
<path d="M186.147 398.639C186.326 399.808 186.617 400.949 187.014 402.041C187.601 403.806 188.353 405.682 189.79 406.539C191.096 407.311 192.699 407.032 194.027 406.299C194.581 406.027 195.066 405.591 195.437 405.033C195.865 404.15 196.057 403.133 195.986 402.118C195.986 399.606 195.859 397.01 194.888 394.777C194.054 392.83 192.6 391.155 192.578 389L187.579 390.142C187.311 390.173 187.056 390.292 186.844 390.486C186.685 390.684 186.575 390.928 186.525 391.194C185.992 393.623 185.863 396.152 186.147 398.639V398.639Z" fill="#887BB1"/>
<path d="M127.089 338.529C126.89 340.581 126.974 342.781 127.855 344.553C128.736 346.325 130.591 347.498 132.196 346.791C132.278 346.765 132.355 346.72 132.422 346.658C132.49 346.595 132.547 346.517 132.589 346.427C132.631 346.212 132.607 345.985 132.521 345.79C131.812 343.492 131.871 340.948 132.683 338.701C132.788 338.408 133.013 338.063 133.26 338.178C133.363 338.242 133.446 338.345 133.496 338.471C133.75 339.005 133.877 339.614 133.863 340.231C133.789 340.789 133.775 341.357 133.821 341.92C133.92 342.468 134.403 342.985 134.822 342.749C134.943 342.658 135.048 342.539 135.13 342.397C135.212 342.256 135.27 342.096 135.299 341.927C136.468 337.815 135.939 333.32 135.404 329.017C135.408 328.918 135.395 328.819 135.365 328.728C135.334 328.636 135.288 328.553 135.228 328.486C135.169 328.418 135.098 328.367 135.02 328.337C134.943 328.307 134.861 328.297 134.78 328.309C132.306 328.01 130.953 327.289 129.538 330.088C128.321 332.447 127.089 335.692 127.089 338.529Z" fill="#887BB1"/>
<path d="M156.566 326.847C155.81 330.591 155.049 334.379 155 338.226C155.013 340.622 155.165 343.014 155.454 345.385L156.021 350.956C156.215 352.834 156.404 354.706 156.68 356.565C156.856 357.522 156.951 358.498 156.966 359.479C156.913 360.445 156.785 361.403 156.583 362.341C156.243 364.311 156.053 366.313 156.015 368.323C155.956 371.539 156.291 374.756 156.502 377.972C156.922 384.381 156.859 390.822 156.313 397.217C156.094 398.944 156.409 400.706 157.198 402.177C157.519 402.641 157.782 403.156 157.982 403.708C158.387 405.181 157.441 406.654 157.198 408.165C157.043 409.344 157.287 410.548 157.876 411.513C158.465 412.478 159.352 413.125 160.342 413.311C164.663 413.922 169.103 413.646 172.997 416C173.408 414.572 172.511 412.951 172.922 411.497C173.181 410.597 173.894 410.011 174.38 409.252C175.033 408.096 175.359 406.721 175.309 405.329C175.328 403.511 175.057 401.706 174.51 400.009C174.051 398.594 173.392 397.198 173.43 395.68C173.43 394.934 173.651 394.149 173.397 393.461C173.223 393.066 172.986 392.714 172.7 392.425C171.086 390.319 170.094 387.643 169.875 384.803C169.665 381.985 169.741 379.147 170.102 376.351C170.367 373.688 170.723 370.877 172.144 368.799C171.485 362.499 171.872 356.107 173.284 349.984C173.424 349.418 173.646 348.762 174.132 348.627C174.325 348.604 174.52 348.636 174.7 348.721C174.881 348.806 175.042 348.941 175.169 349.116C176.017 350.062 176.422 351.432 176.789 352.744C177.194 354.165 177.605 355.684 177.297 357.137C177.167 357.78 176.908 358.347 176.757 358.964C176.428 360.205 176.486 361.545 176.919 362.74C177.13 363.176 177.262 363.661 177.308 364.161C177.258 364.592 177.148 365.009 176.984 365.396C176.783 366.158 176.72 366.96 176.797 367.753C176.874 368.545 177.091 369.309 177.432 369.996C178.12 371.362 178.97 372.603 179.954 373.681C179.484 376.15 179.606 378.727 180.306 381.117C180.356 381.225 180.388 381.343 180.4 381.466C180.412 381.588 180.404 381.712 180.376 381.831C180.279 382.076 180.03 382.166 179.836 382.339C179.295 382.867 179.63 383.864 179.992 384.552C180.984 386.441 182.079 388.25 183.271 389.968C184.351 391.505 184.254 394.471 185.864 395.024C186.54 395.198 187.24 395.198 187.916 395.024C189.504 394.735 191.276 394.188 192.054 392.515C192.372 391.827 192.502 390.991 192.999 390.476C193.496 389.962 194.138 389.872 194.414 389.254C194.689 388.637 194.382 387.826 194.473 387.112C194.565 386.398 195.089 385.826 195.257 385.073C195.656 383.336 193.955 381.908 193.723 380.133C193.388 377.56 196.11 375.63 195.997 373.057C195.759 367.468 195.608 361.852 195.365 356.262C195.06 351.255 195.016 346.231 195.235 341.217C195.424 338.097 195.775 334.83 194.814 331.929C193.431 327.838 189.618 325.541 185.928 325.104C182.239 324.667 178.561 325.709 174.904 326.39C168.835 327.504 162.669 327.658 156.566 326.847V326.847Z" fill="#222222"/>
<path d="M167.5 266C172.194 266 176 261.299 176 255.5C176 249.701 172.194 245 167.5 245C162.806 245 159 249.701 159 255.5C159 261.299 162.806 266 167.5 266Z" fill="#FBBEBE"/>
<path d="M164.521 267.864C164.234 268.727 163.75 269.458 163.134 269.96C162.518 270.462 161.799 270.712 161.071 270.677C160.765 272.311 161.499 273.959 162.339 275.246C164.084 277.862 166.338 279.832 168.87 280.951C171.401 282.07 174.119 282.299 176.742 281.613C177.763 281.378 178.731 280.857 179.579 280.088C180.723 278.857 181.49 277.144 181.746 275.253C181.989 273.375 182.058 271.466 181.952 269.567C181.981 269.192 181.898 268.816 181.719 268.518C181.508 268.307 181.247 268.196 180.979 268.205C179.194 268 177.329 267.912 175.759 266.781C174.19 265.651 173.075 263.097 173.831 261C173.709 261.327 170.624 261.483 170.217 261.552C168.944 261.783 167.67 262.042 166.402 262.342C165.793 262.385 165.191 262.531 164.611 262.777C163.845 263.288 164.13 263.036 164.31 263.962C164.579 265.379 164.976 266.393 164.521 267.864Z" fill="#FBBEBE"/>
<path d="M170.739 273.51C169.572 273.526 168.407 273.373 167.271 273.053C166.123 272.734 165.112 271.931 164.424 270.792C164.024 270.071 163.764 269.163 163.125 268.757C162.081 268.113 160.89 269.201 160.057 270.2C159.298 271.184 158.419 272.027 157.449 272.699C156.29 273.427 154.938 273.684 153.844 274.541C152.99 275.309 152.258 276.251 151.68 277.324L144.012 289.755C140.932 294.754 138.254 300.119 135.51 305.395C133.134 309.961 131.89 315.217 130.099 320.145C129.957 320.446 129.898 320.793 129.931 321.137C129.996 321.472 130.337 321.742 130.575 321.549C129.768 322.502 130.477 324.126 130.288 325.465C130.073 326.403 129.624 327.241 129 327.868C130.191 327.683 131.4 327.751 132.572 328.068C133.782 328.476 134.924 329.13 135.948 330C136.603 329.878 136.544 328.493 137.031 327.977C137.323 327.675 137.756 327.713 138.14 327.623C139.585 327.288 140.159 325.221 141.268 324.055C142.193 323.082 143.503 322.766 144.482 321.852C146.073 320.364 146.414 317.717 147.248 315.52C147.957 313.659 149.071 312.035 149.694 310.129C150.1 308.892 150.294 307.552 150.874 306.412C151.799 304.57 153.541 303.591 155.203 302.709C156.253 302.148 157.367 301.568 158.498 301.659C158.439 304.654 158.12 307.604 158.666 310.528C158.856 311.559 159.121 312.564 159.348 313.588C160.382 318.2 160.625 323.005 160.674 327.758C163.16 327.081 165.7 326.719 168.25 326.676C170.258 326.605 172.26 326.915 174.268 326.87C176.649 326.818 179.003 326.271 181.384 326.077C183.765 325.884 186.254 326.077 188.359 327.366C188.188 323.283 188.284 319.192 188.646 315.127L189.22 308.725C189.349 306.864 189.59 305.018 189.94 303.198C190.253 301.729 190.708 300.312 191.054 298.85C192.272 293.697 192.05 288.196 191.817 282.831C191.698 280.074 190.805 277.362 189.756 274.908C189.376 273.997 188.942 273.118 188.457 272.28C187.188 270.2 185.497 268.536 183.542 267.443C181.587 266.35 179.432 265.865 177.277 266.032C177.001 266.042 176.73 266.112 176.476 266.238C176.019 266.586 175.662 267.092 175.453 267.688C174.333 270.083 172.709 272.09 170.739 273.51Z" fill="#222222"/>
<path d="M159.741 259.542C159.992 258.911 160.669 258.678 161.082 258.173C161.876 257.214 161.518 255.682 161.641 254.389C161.842 252.497 163.234 250.913 164.827 250.239C166.452 249.65 168.18 249.527 169.857 249.879C170.665 249.946 171.445 250.238 172.127 250.731C172.417 250.97 172.686 251.279 172.959 251.5C173.459 251.841 174.056 251.947 174.624 251.798C175.192 251.648 175.686 251.254 176 250.699C174.021 248.012 171.83 245.174 168.823 244.348C167.792 244.11 166.741 243.998 165.688 244.013C164.296 243.982 162.86 243.957 161.574 244.556C159.825 245.369 158.595 247.243 157.963 249.261C157.411 251.307 157.116 253.43 157.086 255.568C156.971 256.995 156.971 258.43 157.086 259.857C157.302 261.806 157.943 263.663 158.953 265.262C159.089 265.511 159.282 265.713 159.512 265.849C162.06 267.111 159.534 260.065 159.741 259.542Z" fill="#222222"/>
<path d="M176 248.617C175.701 245.647 173.875 243.194 171.935 241.221C170.372 239.51 168.509 238.209 166.474 237.406C164.426 236.706 162.067 236.858 160.312 238.276C158.899 239.418 158.003 241.233 157.313 243.062C156.406 245.22 155.957 247.598 156.003 249.998C156.139 252.381 157.139 254.796 158.921 256C159.562 254.903 160.676 254.335 161.747 253.888C166.413 251.834 171.171 250.074 176 248.617V248.617Z" fill="#FED253"/>
<path opacity="0.1" d="M159.562 247C159.728 247 159.836 247.273 159.919 247.497C160.34 248.547 160.702 249.654 161 250.807C160.395 251.014 159.356 251.245 159.056 250.393C158.895 249.963 159.087 246.959 159.562 247Z" fill="black"/>
<path opacity="0.1" d="M171.351 245.963C171.189 246.101 171.001 245.819 171.001 245.615V243.287C170.996 243.222 171.013 243.158 171.048 243.101C171.076 243.072 171.11 243.049 171.148 243.033C171.186 243.016 171.228 243.007 171.27 243.005C171.816 242.951 172.268 243.365 172.618 243.761C173.15 244.403 173.613 245.088 174 245.807L171.149 245.729" fill="black"/>
<path d="M200.133 287.222C200.625 286.67 201.151 286.162 201.705 285.701C203.187 284.533 204.979 284.073 206.642 283.328C208.305 282.583 209.995 281.378 210.642 279.422C210.966 278.198 211.072 276.909 210.952 275.635C210.968 275.102 210.888 274.571 210.717 274.077C210.513 273.64 210.224 273.267 209.872 272.991C207.615 271.022 204.588 270.864 201.786 271.066C195.607 271.518 189.551 273.302 183.918 276.329C183.62 276.446 183.359 276.666 183.169 276.961C183.059 277.234 183.01 277.536 183.024 277.838C182.925 279.699 183.13 281.565 183.629 283.334C184.367 285.581 185.886 287.392 186.522 289.683C186.811 290.711 186.907 291.803 187.159 292.838C187.365 293.907 187.9 294.847 188.661 295.476C190.774 296.965 192.769 294.965 194.234 293.412L200.133 287.222Z" fill="#222222"/>
<path d="M172.353 295.959L169.615 288.787C169.213 287.793 168.867 286.768 168.578 285.719C168.265 284.467 168.114 283.17 167.822 281.912C166.861 277.723 164.436 274.234 163.253 270.128C163.178 269.758 163.026 269.416 162.81 269.136C162.637 268.989 162.44 268.89 162.232 268.845C162.024 268.8 161.81 268.811 161.606 268.877C159.953 269.22 158.662 270.731 157.15 271.587C156.448 271.977 155.692 272.236 154.99 272.683C154.639 272.883 154.328 273.171 154.078 273.528C153.829 273.885 153.646 274.303 153.543 274.752C153.375 275.745 153.786 276.698 154.131 277.664C155.6 281.646 155.935 286.095 156 290.453C156.049 293.385 155.924 296.53 154.482 298.884C151.712 303.424 153.483 310.091 154.52 315.584C154.644 316.233 154.79 316.933 154.877 317.621C154.968 318.481 155.009 319.348 155.001 320.215C155.001 323.127 154.866 326.129 153.85 328.769C154.853 329.409 155.958 329.785 157.091 329.871C160.227 330.351 163.375 330.689 166.537 330.883C167.527 330.995 168.526 330.934 169.502 330.702C170.66 330.326 171.682 329.496 172.405 328.346C173.127 327.195 173.51 325.787 173.493 324.346C173.665 326.142 173.984 328.094 175.07 329.34C176.155 330.585 177.738 330.773 179.212 330.87C183.373 331.135 187.545 330.994 191.687 330.449C191.952 330.434 192.212 330.362 192.454 330.235C193.254 329.755 193.297 328.432 193.232 327.368C193.113 325.377 192.989 323.386 192.789 321.408C192.62 320.147 192.533 318.872 192.53 317.595C192.612 316.281 192.793 314.978 193.07 313.703C193.794 309.657 194.366 305.525 194.123 301.381C194.027 300.372 193.993 299.355 194.02 298.34C194.161 296.05 195.165 293.871 194.976 291.595C194.436 284.902 193.999 278.034 192.443 271.575C192.163 270.42 191.806 269.181 190.969 268.52C189.889 267.651 188.371 268.105 187.135 267.554C186.554 267.229 186.003 266.836 185.487 266.38C184.368 265.539 183.085 265.065 181.766 265.005C180.773 264.959 179.666 265.225 179.066 266.185C178.788 266.726 178.605 267.328 178.526 267.956C177.743 271.912 176.825 275.822 175.907 279.733L175.026 283.482L172.666 293.547C172.434 294.617 172.591 294.948 172.353 295.959Z" fill="#887BB1"/>
<path d="M186.384 257L239 322.45V328H215.54L176 266.916" fill="#FA8E43"/>
<path opacity="0.1" d="M186.384 257L239 322.45V328H215.54L176 266.916" fill="black"/>
<path opacity="0.1" d="M176.838 266L177.006 266.071L215.877 322.445H239V328H215.54L176 266.864L176.838 266Z" fill="black"/>
<path d="M182.524 267.844C180.691 268.885 178.653 270.219 178.103 272.724C177.995 273.164 177.971 273.631 178.035 274.085C178.169 274.619 178.425 275.088 178.768 275.429C179.111 275.771 179.526 275.969 179.958 275.998C180.82 276.025 181.678 275.821 182.477 275.399L193.293 270.757C193.587 270.635 193.922 270.451 193.995 270.077C194.014 269.841 193.977 269.604 193.89 269.396C193.555 268.334 193.225 266.163 192.523 265.421C191.947 264.822 190.805 265.033 190.109 265.047C187.427 265.074 184.907 266.483 182.524 267.844Z" fill="#887BB1"/>
<path d="M192.42 271.008C194.328 271.001 196.226 271.333 198.043 271.989C199.869 272.656 201.485 273.898 202.701 275.568C203.055 276.035 203.307 276.589 203.436 277.185C203.546 277.803 205.335 278.173 204.94 278.593C206.141 278.377 205.856 279.012 207.074 279C208.292 278.987 209.609 278.636 210.338 277.543C210.845 276.646 211.071 275.584 210.98 274.525C210.996 273.793 210.873 273.065 210.618 272.39C210.07 271.094 208.808 270.397 207.645 269.798L197.846 264.756C197.277 264.416 196.667 264.172 196.035 264.034C195.503 263.977 194.967 263.992 194.439 264.077L190 264.651C190.971 265.357 191.761 266.336 192.293 267.491C192.825 268.646 193.08 269.936 193.034 271.236" fill="#222222"/>
</svg>
